<?xml version="1.0" encoding="utf-8"?>
<!-- Generator: Adobe Illustrator 24.0.2, SVG Export Plug-In . SVG Version: 6.00 Build 0)  -->
<svg version="1.1" id="Capa_1" xmlns="http://www.w3.org/2000/svg" xmlns:xlink="http://www.w3.org/1999/xlink" x="0px" y="0px"
	 viewBox="0 0 242.4 213.8" style="enable-background:new 0 0 242.4 213.8;" xml:space="preserve">
<style type="text/css">
	.st0{fill:#1A1A1A;}
</style>
<title>cta</title>
<g id="Capa_2_1_">
	<g id="Capa_1-2">
		<g>
			<path class="st0" d="M186.3,213.3c-3.3,0-6.2,0-8.9-0.1c-2.9-0.1-5.8-0.5-8.6-1.1c-2.8-0.7-4.8-2.1-5.7-4.1c-1-2-0.8-4.5,0.5-7.1
				c2.9-6.1,7.7-9.3,13.7-9.5c3.9-0.1,8.1-0.1,13.3-0.1c2.7,0,5.4,0,8.2,0c2.7,0,5.4,0,8.2,0l14.7,0c-0.7,3.1-1.3,5.9-1.9,8.8h-40.7
				c-0.2,0-0.5,0-0.8,0c-0.9,0-1.8,0.1-2.7,0.3c-0.7,0.2-1.1,0.8-1.4,1.3c-0.1,0.2-0.3,0.4-0.4,0.6l-0.3,0.4l0.4,0.3
				c0.2,0.1,0.4,0.3,0.6,0.5c0.5,0.5,1,1,1.7,1c11.7-0.1,23.6-0.2,35.1-0.3l6.6-0.1h0.6c0.2,0,0.5,0,0.7,0c0.3,0,0.6,0,0.9,0
				c0.3,0,0.6,0,0.9,0c0.9,0,1.9-0.1,2.6-0.6c0.9-0.7,1-2.1,1.2-3.4c0-0.5,0.1-0.9,0.2-1.4c0.6-3.1,1.2-6.1,1.7-9.2
				c0-0.4,0-0.8,0-1.1l0-0.5H226c-0.3,0-0.7,0-1,0c-0.4,0-0.7-0.1-1.1-0.1c-16.9,0-34,0-50.7-0.1c-15.7,0-31.2-0.1-46.1-0.2
				c-2.2,0-3.1,0.7-3.5,2.8c-0.5,3.2-1.1,6.3-1.7,9.7c-0.2,1.2-0.5,2.5-0.7,3.8l-0.1,0.6h32.4c-0.1,0.6-0.3,1.2-0.4,1.8
				c-0.4,2.1-0.9,4.2-1.4,6.2c-0.1,0.1-0.8,0.4-1.3,0.4c-4.4,0.1-8.9,0.1-13.3,0.1l-3.3,0h-15c-0.4,0-0.9,0-1.3,0
				c-3-0.2-5-1-6.1-2.4c-1.1-1.4-1.3-3.4-0.8-6.3c0.5-3,1.1-6,1.7-8.9c0.3-1.6,0.6-3.2,0.9-4.8c0.1-0.5,0.1-0.9,0.2-1.5
				c0-0.3,0.1-0.6,0.1-1l0.1-0.6h-2.9c-18,0-36.3,0-54.3,0.1c-3.3,0-6.6,0-9.9,0.1c-3.3,0-6.6,0.1-9.9,0.1c-1.5,0-2.4,0.4-2.7,2.2
				c-0.5,3.2-1.2,6.3-1.8,9.6c-0.3,1.5-0.6,2.9-0.9,4.4l-0.1,0.6H92l-1.6,8c-0.2,0-0.5,0-0.7,0c-0.3,0-0.7,0-1,0H32.8
				c-2.5,0-5.1-0.4-7.5-1.1c-2.9-0.6-4.8-3.3-4.4-6.1c0.4-6.9,1.9-13.6,4.6-20c2.1-5,6.7-5.9,11.2-6.4c1-0.1,2-0.1,3-0.1
				c0.2,0,0.5,0,0.7,0h72.5c3.1,0,3.3-0.2,3.9-3.2c0.1-0.7,0.3-1.4,0.4-2.3l0.3-1.8l-5.7,0.2c-7.8,0.3-15.9,0.6-23.8,0.6
				c-5,0-9.7-0.1-14.1-0.4c13.4-0.8,26.8-2.2,40-4.2c29.1-4.2,52.3-10.2,72.8-18.8c9.1-3.8,15.6-7.7,20.9-12.6l1.2-1.1
				c7.6-7.5,8.9-14.5,4.5-24.9c-2.8-6.7-7.4-12.3-11.8-17.8l-1.5-1.9c-5.8-7.2-13-12.9-20-18.5l-2.2-1.7
				c-16.6-13.2-34.4-25.1-52.9-35.4C105.8,24.7,86,15.6,65.7,8c0.9,0.2,1.7,0.4,2.6,0.7c21.6,5.9,42.7,13.9,62.8,23.8
				c17.4,8.6,32.4,16.8,45.7,25.1c10.4,6.4,20.1,14.1,29.6,21.5l3.2,2.5c7.7,6.1,14.9,12.8,21.3,20.2c4.1,4.5,7.2,9.6,9.4,15.2
				c3.4,9.3,1.5,17-6,24.3c-9.5,9.2-21.2,13.9-31.5,17.4c-13.2,4.3-26.9,7.3-40.7,8.8c-7.8,0.9-15.8,1.8-23.5,2.7l-6.8,0.8
				c-0.8,0.1-1.7,0.2-2.5,0.2l-1.6,0.1l-1.2,7.4h2.8c27.9,0,55.9,0,83.4,0.1c1.6,0,3.2,0,4.7-0.1c1.6,0,3.1-0.1,4.7-0.1
				c1.8,0,3.3,0,4.7,0.1c2.1,0.2,4.2,0.6,6.2,1.4c2.5,0.9,4.1,3.3,4,5.9c0.1,6.3-0.9,12.5-3.1,18.4c-2,5.3-6.5,8.3-12.8,8.6
				c-6.4,0.2-12.9,0.3-19.2,0.3l-4.6,0C193.7,213.3,190,213.3,186.3,213.3z"/>
			<path d="M75.1,11.1c19.2,5.7,37.9,13,55.8,21.8c17.4,8.6,32.4,16.8,45.7,25.1c10.3,6.4,20.1,14.1,29.5,21.5
				c1.1,0.8,2.1,1.7,3.2,2.5c7.7,6,14.8,12.8,21.3,20.2c4,4.4,7.1,9.5,9.3,15c3.4,9.1,1.5,16.7-5.8,23.8
				c-9.4,9.1-21.1,13.8-31.3,17.2c-13.2,4.3-26.8,7.3-40.6,8.8c-7.8,0.9-15.8,1.8-23.5,2.7c-2.3,0.2-4.5,0.5-6.8,0.8
				c-0.8,0.1-1.6,0.1-2.5,0.2c-0.4,0-0.8,0-1.2,0.1l-0.8,0.1l-0.1,0.8l-1.1,6.4l-0.2,1.2h1.2h2.2c27.7,0,55.7,0,83.4,0.1
				c1.6,0,3.2,0,4.7-0.1c1.5,0,3.1-0.1,4.7-0.1c1.7,0,3.3,0,4.6,0.1c2.1,0.1,4.1,0.6,6.1,1.4c2.3,0.8,3.7,3,3.6,5.4l0,0l0,0
				c0.1,6.2-0.9,12.4-3.1,18.2c-1.9,5.1-6.3,8-12.4,8.2c-6.4,0.2-12.9,0.3-19.2,0.3l-2.5,0l-2,0c-3.6,0-7.3,0.1-11,0.1
				c-3.3,0-6.2,0-8.9-0.1c-2.8-0.1-5.7-0.4-8.5-1.1c-2.6-0.6-4.5-2-5.4-3.9c-0.9-1.9-0.7-4.2,0.4-6.7c2.9-6,7.3-9.1,13.3-9.2
				c3.9-0.1,8.1-0.1,13.3-0.1c2.7,0,5.5,0,8.2,0c2.7,0,5.5,0,8.2,0l1,0h13.1c-0.6,2.7-1.1,5.2-1.7,7.8H218h-38.9c-0.3,0-0.6,0-0.9,0
				c-0.9,0-1.9,0.1-2.8,0.3l0,0l0,0c-0.8,0.2-1.2,0.9-1.7,1.5c-0.1,0.2-0.3,0.4-0.4,0.5l-0.7,0.8l0.8,0.6c0.2,0.1,0.3,0.3,0.5,0.5
				c0.5,0.5,1.2,1.2,2,1.2c11.8-0.1,23.7-0.2,35.3-0.3l6.4-0.1h0.6h0l0,0c0.2,0,0.4,0,0.6,0c0.3,0,0.6,0,0.9,0c0.3,0,0.6,0,0.9,0
				c1,0,2.1-0.1,2.9-0.7c1.1-0.9,1.2-2.4,1.4-3.8c0-0.5,0.1-0.9,0.2-1.3c0.6-3.1,1.2-6.2,1.7-9.2l0-0.1l0-0.1c0-0.4,0-0.8,0-1.2
				l-0.1-0.9H226c-0.3,0-0.6,0-1,0c-0.4,0-0.7-0.1-1.1-0.1c-16.8,0-33.9,0-50.7-0.1c-15.6,0-31.1-0.1-46.1-0.2c-2.5,0-3.6,0.9-4,3.3
				c-0.5,3.2-1.1,6.3-1.7,9.7c-0.2,1.2-0.5,2.5-0.7,3.8l-0.2,1.2h1.2h31.2c-0.1,0.4-0.2,0.8-0.2,1.2c-0.4,2.1-0.8,4-1.3,6
				c-0.2,0.1-0.6,0.2-0.9,0.2c-4.4,0.1-8.9,0.1-13.2,0.1l-3.3,0h-15c-0.5,0-0.9,0-1.3,0c-2.9-0.2-4.7-1-5.7-2.2
				c-1-1.2-1.2-3.2-0.7-6c0.5-3,1.1-6,1.7-8.9c0.3-1.6,0.6-3.2,0.9-4.8c0.1-0.5,0.1-0.9,0.2-1.5c0-0.3,0.1-0.6,0.1-1l0.2-1.1h-1.1
				h-2.3c-18,0-36.3,0-54.3,0.1c-3.3,0-6.7,0-9.9,0.1c-3.2,0-6.6,0.1-9.9,0.1c-1.4,0-2.8,0.3-3.2,2.6c-0.5,3.2-1.2,6.3-1.8,9.6
				c-0.3,1.5-0.6,2.9-0.9,4.4l-0.2,1.2h1.2h59.6l-1.4,7c-0.1,0-0.2,0-0.3,0c-0.3,0-0.7,0-1,0l-55.9,0c-2.5,0-5-0.4-7.4-1.1l0,0l0,0
				c-2.6-0.5-4.4-3-4-5.6l0,0l0,0c0.3-6.8,1.9-13.5,4.6-19.8c1.8-4.3,5.3-5.5,10.7-6.1c1-0.1,2-0.1,3-0.1c0.2,0,0.5,0,0.7,0h72.4
				c3.3,0,3.7-0.3,4.4-3.6c0.1-0.7,0.3-1.5,0.4-2.4l0.2-1.2l0.2-1.2l-1.2,0c-1.7,0.1-3.4,0.1-5.1,0.2c-7.8,0.3-15.8,0.6-23.7,0.6
				c-1.6,0-3.2,0-4.7,0c10.3-0.8,20.5-2,30.6-3.5c29.2-4.2,52.4-10.2,72.9-18.8c9.2-3.8,15.7-7.7,21-12.7l1.2-1.1
				c7.8-7.7,9.1-14.8,4.6-25.4c-2.9-6.7-7.5-12.4-11.9-17.9c-0.5-0.6-1-1.3-1.5-1.9c-5.8-7.2-13.1-13-20.1-18.5
				c-0.7-0.6-1.4-1.1-2.2-1.7c-16.6-13.2-34.4-25.1-53-35.4C108.9,25.9,92.1,17.9,75.1,11.1 M60,6.1c0.3,0.4,0.8,0.6,1.2,0.8
				c21.8,8,42.9,17.6,63.2,28.8c18.6,10.3,36.2,22.1,52.8,35.3c7.8,6.2,15.8,12.2,22.1,20.1c5,6.2,10.2,12.2,13.3,19.6
				c4.5,10.5,3,17.1-4.3,24.3l-1.2,1.1c-6.1,5.6-13.2,9.3-20.7,12.5c-23.3,9.8-47.8,15.1-72.7,18.8c-15.8,2.4-31.7,3.9-47.7,4.6
				c7.4,0.7,14.6,1,21.9,1c9.6,0,19.2-0.4,28.9-0.8c-0.2,1.5-0.4,2.5-0.6,3.5c-0.5,2.8-0.5,2.8-3.4,2.8H40.4c-0.2,0-0.5,0-0.7,0
				c-1,0-2,0-3.1,0.1c-4.8,0.6-9.4,1.6-11.6,6.7c-2.7,6.4-4.3,13.2-4.7,20.1c-0.4,3.2,1.7,6.1,4.8,6.7c2.5,0.7,5.1,1.1,7.6,1.1
				c18.6,0,37.2,0,55.9,0c0.7,0,1.4-0.1,2.1-0.1l1.8-9H31.8c0.9-4.9,1.9-9.5,2.7-14.1c0.2-1.5,0.9-1.8,2.2-1.8
				c6.6,0,13.2-0.1,19.8-0.1c18.1-0.1,36.2-0.1,54.3-0.1h2.3c-0.1,1-0.2,1.8-0.3,2.5c-0.9,4.6-1.8,9.1-2.6,13.7
				c-1.1,6.1,1.1,8.8,7.3,9.3c0.5,0.1,0.9,0.1,1.4,0.1h15c5.6,0,11,0,16.6-0.1c0.6,0,1.7-0.4,1.8-0.8c0.7-2.8,1.3-5.6,1.9-8.6h-32.4
				c0.8-4.7,1.7-9.2,2.4-13.5c0.3-1.9,1.1-2.4,3-2.4c15.4,0.1,30.7,0.2,46.1,0.2c16.9,0.1,33.8,0.1,50.7,0.1c0.7,0,1.4,0.1,2.1,0.1
				c0,0.3,0,0.7,0,1c-0.6,3.1-1.1,6.1-1.7,9.2c-0.3,1.6-0.1,3.6-1.2,4.5c-0.5,0.4-1.4,0.5-2.3,0.5c-0.6,0-1.2,0-1.8,0
				c-0.2,0-0.5,0-0.7,0c-0.2,0-0.4,0-0.6,0c-13.9,0.1-27.8,0.3-41.7,0.4c-0.6,0-1.3-1-1.9-1.5c0.5-0.6,0.9-1.5,1.6-1.7
				c0.8-0.2,1.7-0.3,2.5-0.3c0.3,0,0.5,0,0.8,0c13,0,25.9,0,38.9,0h2.2c0.7-3.3,1.4-6.4,2.1-9.8H208c-0.3,0-0.6,0-1,0
				c-5.5,0-10.9,0-16.4,0c-4.4,0-8.9,0-13.3,0.1c-6.7,0.2-11.3,3.9-14.2,9.8c-2.7,5.6-0.4,10.5,5.6,11.9c2.8,0.7,5.7,1.1,8.7,1.1
				c3,0,6,0.1,9,0.1c4.3,0,8.7,0,13-0.1c7.2,0,14.5-0.1,21.7-0.3c6.2-0.2,11.1-3.1,13.3-8.9c2.2-5.9,3.2-12.2,3.1-18.6
				c0.1-2.8-1.6-5.4-4.3-6.4c-2-0.8-4.2-1.3-6.3-1.5c-1.6-0.1-3.1-0.1-4.7-0.1c-3.1,0-6.3,0.1-9.4,0.1c-27.8-0.1-55.6-0.1-83.4-0.1
				c0,0,0,0,0,0H127l1.1-6.4c1.4-0.1,2.6-0.1,3.8-0.3c10.1-1.1,20.2-2.2,30.3-3.4c13.9-1.5,27.5-4.5,40.8-8.8
				c11.7-3.9,22.8-8.8,31.7-17.5c7.4-7.2,9.7-15.1,6.1-24.9c-2.2-5.7-5.4-10.9-9.5-15.4c-6.5-7.4-13.7-14.2-21.4-20.3
				c-10.7-8.3-21.3-16.8-32.8-24c-14.8-9.2-30.1-17.4-45.8-25.1C111.1,22,90.1,14.1,68.4,8.1c-1.4-0.4-2.9-0.7-4.2-1.1
				C62.8,6.7,61.4,6.4,60,6.1L60,6.1z"/>
		</g>
		<g>
			<path class="st0" d="M91.9,149.6c-0.9-0.9-1.6-1.9-2.3-2.9c-2.1-4.2-4.3-8.8-6.7-14.3c-0.2-0.6-0.1-1.4,0.2-2.1
				c4.1-13.9,5.9-28.3,5.1-42.7c-1-25.6-9-50.3-23.2-71.6c12.3,16,21.2,34.6,25.8,54.2C97.6,98.1,98,124.1,91.9,149.6z"/>
			<path d="M72.9,28.2c8,12.9,13.9,27.2,17.4,42c6.7,27.6,7.1,53.2,1.3,78.3c-0.6-0.7-1.1-1.4-1.6-2.1c-2.1-4.3-4.2-8.8-6.7-14.2
				c-0.1-0.6-0.1-1.2,0.1-1.8l0,0l0,0c4.1-13.9,5.9-28.3,5.1-42.8C87.9,66.7,82.5,46.5,72.9,28.2 M58.8,7.6c1.5,2.2,3,4.5,4.5,6.7
				c14.9,21.6,23.3,46.9,24.3,73.1c0.7,14.4-1,28.7-5.1,42.5c-0.3,0.8-0.4,1.6-0.2,2.5c2.2,4.9,4.4,9.7,6.8,14.4
				c0.9,1.3,1.9,2.5,3,3.6c6.7-27.3,5.6-54-0.9-80.6C85.8,46.8,74.6,25.4,58.8,7.6L58.8,7.6z"/>
		</g>
		<g>
			<ellipse class="st0" cx="6.1" cy="42.6" rx="5.6" ry="21.2"/>
			<path d="M6.1,21.9c0.8,0,2.2,1.5,3.3,5.6c1.1,4,1.7,9.4,1.7,15.1s-0.6,11.1-1.7,15.1c-1.2,4.2-2.5,5.6-3.3,5.6s-2.2-1.5-3.3-5.6
				C1.6,53.7,1,48.4,1,42.7s0.6-11.1,1.7-15.1C3.9,23.4,5.3,21.9,6.1,21.9 M6.1,20.9C2.7,20.9,0,30.6,0,42.7c0,12,2.7,21.7,6.1,21.7
				s6.1-9.7,6.1-21.7C12.2,30.6,9.4,20.9,6.1,20.9L6.1,20.9z"/>
		</g>
		<g>
			<path class="st0" d="M21.9,27.6c-1.4,0-3.3-5.2-3.3-13.6c0-8.4,1.9-13.5,3.3-13.5s3.3,5.2,3.3,13.5
				C25.2,22.4,23.3,27.6,21.9,27.6z"/>
			<path d="M21.9,1c0.8,0,2.8,4.6,2.8,13.1s-2,13.1-2.8,13.1s-2.8-4.6-2.8-13.1S21.1,1,21.9,1 M21.9,0c-2.1,0-3.8,6.3-3.8,14.1
				s1.7,14.1,3.8,14.1s3.8-6.3,3.8-14.1S24,0,21.9,0L21.9,0z"/>
		</g>
		<g>
			<path class="st0" d="M40.2,15.5c-0.4-0.4-1.1-2.7-1.1-6.7c0-4.1,0.7-6.5,1.1-6.7c0.3,0.2,1.1,2.6,1.1,6.7
				C41.3,12.7,40.6,15.1,40.2,15.5z"/>
			<path d="M40.2,3.3c0.3,1,0.6,2.9,0.6,5.5s-0.3,4.5-0.6,5.5c-0.3-1-0.6-2.9-0.6-5.5S39.9,4.3,40.2,3.3 M40.2,1.6
				c-0.9,0-1.6,3.2-1.6,7.2c0,4,0.7,7.2,1.6,7.2s1.6-3.2,1.6-7.2C41.8,4.8,41.1,1.6,40.2,1.6L40.2,1.6z"/>
		</g>
		<g>
			<path class="st0" d="M23.6,104.5c-3.2,0-6.6-10.4-6.6-25.9c0-15.5,3.4-26,6.6-26c3.2,0,6.6,10.4,6.6,26
				C30.2,94.1,26.8,104.5,23.6,104.5z"/>
			<path d="M23.6,53.1c2.6,0,6.1,9.7,6.1,25.4S26.2,104,23.6,104s-6.1-9.7-6.1-25.4S21.1,53.1,23.6,53.1 M23.6,52.1
				c-3.9,0-7.1,11.8-7.1,26.4s3.2,26.4,7.1,26.4s7.1-11.8,7.1-26.4S27.6,52.1,23.6,52.1L23.6,52.1z"/>
		</g>
		<g>
			<ellipse class="st0" cx="56.4" cy="91.7" rx="10.2" ry="42"/>
			<path d="M56.4,50.1c4.6,0,9.8,17.1,9.8,41.6s-5.1,41.6-9.8,41.6s-9.8-17.1-9.8-41.6S51.8,50.1,56.4,50.1 M56.4,49.1
				c-5.9,0-10.8,19.1-10.8,42.6s4.8,42.6,10.8,42.6s10.8-19.1,10.8-42.6S62.3,49.1,56.4,49.1L56.4,49.1z"/>
		</g>
	</g>
</g>
</svg>
