<svg xmlns="http://www.w3.org/2000/svg" viewBox="0 0 242.4 213.79"><defs><style>.cls-1{fill:#fff;}</style></defs><title>cta</title><g id="Capa_2" data-name="Capa 2"><g id="Capa_1-2" data-name="Capa 1"><path class="cls-1" d="M121.74,204h32.41c-.64,3-1.17,5.85-1.9,8.64-.1.39-1.17.74-1.79.75-5.52.07-11,.06-16.57.07h-15c-.46,0-.93,0-1.39-.05-6.22-.5-8.4-3.21-7.34-9.33.8-4.58,1.75-9.13,2.62-13.7.13-.7.19-1.42.33-2.46h-2.29q-27.15,0-54.28.1c-6.59,0-13.17.14-19.75.14-1.37,0-2,.33-2.25,1.79-.79,4.62-1.76,9.22-2.7,14.08H92.66L90.81,213c-.72,0-1.43.09-2.14.09-18.63,0-37.26,0-55.88,0a29.44,29.44,0,0,1-7.64-1.1,6,6,0,0,1-4.81-6.69A58.66,58.66,0,0,1,25,185.18c2.18-5.12,6.75-6.16,11.58-6.72a34,34,0,0,1,3.78-.13H112.8c2.84,0,2.85,0,3.38-2.8.2-1,.36-2.06.61-3.54-17,.62-33.66,1.52-50.77-.19a450.81,450.81,0,0,0,47.71-4.55c24.91-3.61,49.38-9,72.7-18.76,7.51-3.14,14.67-6.91,20.73-12.48l1.16-1.1c7.35-7.22,8.8-13.81,4.35-24.31-3.12-7.34-8.34-13.39-13.3-19.56-6.32-7.84-14.31-13.89-22.09-20.09a384,384,0,0,0-52.83-35.32A448.17,448.17,0,0,0,61.25,6.83,2.66,2.66,0,0,1,60,6.06c1.39.33,2.79.65,4.18,1s2.84.69,4.25,1.07A350.7,350.7,0,0,1,131.29,32c15.64,7.69,31,15.91,45.76,25.11,11.54,7.17,22.12,15.66,32.8,24a160.34,160.34,0,0,1,21.39,20.27,49.28,49.28,0,0,1,9.47,15.37c3.61,9.79,1.35,17.66-6.07,24.85-8.92,8.65-20,13.57-31.67,17.48a205,205,0,0,1-40.81,8.83c-10.09,1.22-20.2,2.3-30.3,3.42-1.18.14-2.37.19-3.75.29l-1.06,6.41h2.19q41.72,0,83.42.08c4.72,0,9.45-.23,14.16,0a20.68,20.68,0,0,1,6.35,1.48,6.46,6.46,0,0,1,4.27,6.38,51.64,51.64,0,0,1-3.12,18.57c-2.13,5.75-7.1,8.67-13.27,8.9-7.24.25-14.48.27-21.73.32s-14.63.12-21.94,0a40.9,40.9,0,0,1-8.67-1.15c-6-1.47-8.28-6.36-5.59-11.95,2.84-5.89,7.51-9.6,14.17-9.76,10.23-.24,20.47-.08,30.71-.09h14.29c-.75,3.46-1.41,6.53-2.12,9.83H218q-19.46,0-38.91,0a11.33,11.33,0,0,0-3.36.26c-.65.21-1.08,1.11-1.6,1.71.65.5,1.3,1.46,1.95,1.46,13.9-.06,27.79-.23,41.69-.38.2,0,.4,0,.59,0,1.63-.12,3.71.33,4.75-.51s.87-2.92,1.17-4.48c.6-3.06,1.16-6.13,1.72-9.2a6.4,6.4,0,0,0,0-1c-.71,0-1.41-.1-2.11-.1q-25.35,0-50.69-.1c-15.36,0-30.73-.07-46.09-.22-1.92,0-2.67.54-3,2.42C123.46,194.84,122.59,199.27,121.74,204Z"/><path class="cls-1" d="M58.8,7.62A143.83,143.83,0,0,1,91.31,70c6.47,26.58,7.57,53.24.87,80.55a22.39,22.39,0,0,1-3-3.65c-2.37-4.75-4.6-9.57-6.76-14.42a4,4,0,0,1,.17-2.47,126.73,126.73,0,0,0,5.1-42.52A138.11,138.11,0,0,0,63.35,14.36C61.81,12.13,60.31,9.87,58.8,7.62Z"/><ellipse class="cls-1" cx="6.08" cy="42.65" rx="6.08" ry="21.73"/><ellipse class="cls-1" cx="21.88" cy="14.05" rx="3.81" ry="14.05"/><ellipse class="cls-1" cx="40.23" cy="8.82" rx="1.6" ry="7.19"/><ellipse class="cls-1" cx="23.63" cy="78.56" rx="7.11" ry="26.45"/><ellipse class="cls-1" cx="56.39" cy="91.69" rx="10.75" ry="42.55"/></g></g></svg>