<svg xmlns="http://www.w3.org/2000/svg" viewBox="0 0 117.65 28.59"><defs><style>.cls-1,.cls-7{fill:#28535f;}.cls-2{fill:#c61938;}.cls-3{fill:#e50f3f;}.cls-4{fill:#33344f;}.cls-5{fill:#285a6f;}.cls-6{fill:#e6862f;}.cls-7{font-size:4.84px;font-family:Galvji-BoldOblique, Galvji;font-weight:700;font-style:oblique;}</style></defs><title>Recurso 1</title><g id="Capa_2" data-name="Capa 2"><g id="Print_1" data-name="Print 1"><path class="cls-1" d="M9.41,2.38V2.19h-.3v.19h-.2v.3h.2v.2h.3v-.2h.18v-.3Zm.14.26H9.36v.2H9.15v-.2H9V2.43h.19v-.2h.21v.2h.19ZM7.43,2.38V2.19h-.3v.19h-.2v.3h.2v.2h.3v-.2h.19v-.3Zm.14.26H7.38v.2H7.17v-.2H7V2.43h.19v-.2h.21v.2h.19ZM9.41.44V.24h-.3v.2h-.2v.3h.2v.2h.3V.74h.18V.44ZM9.55.7H9.36V.89H9.15V.7H9V.48h.19V.29h.21V.48h.19ZM7.43.44V.24h-.3v.2h-.2v.3h.2v.2h.3V.74h.19V.44ZM7.57.7H7.38V.89H7.17V.7H7V.48h.19V.29h.21V.48h.19ZM7.26,7.22l.13-.3.12.3-.12.3Zm.37,0,.16-.38L8,7.22l-.16.38Zm1.64,0-.13-.3L9,7.22l.13.3Zm-.38,0-.16-.38-.16.38.16.38Zm-.46,0-.18-.44-.19.44.19.44Zm3.94,11.32v-.32h0c0,.06,0,.08,0,.08a.48.48,0,0,0,.14-.05V18l-.14,0s0,.05,0,.08h0v-.2h0c0,.05,0,.07.12.1l.56.22v0l-.54.22c-.11.05-.14.06-.14.11Zm.25-.3.25-.1-.25-.09Zm.42-.52c0-.06,0-.09-.09-.09H12.5c-.19,0-.23-.11-.23-.21a.15.15,0,0,1,.14-.17.07.07,0,0,1,.07.07.07.07,0,0,1-.07.07s0,0-.07,0,0,0,0,.05.06.06.09.06H13c.07,0,.07,0,.07-.1h0v.35Zm-.67-.66v-.32h0c0,.06,0,.08,0,.08a.48.48,0,0,0,.14-.05v-.22l-.14,0s0,0,0,.08h0v-.2h0c0,.05,0,.07.12.1l.56.21v0l-.54.22c-.11.05-.14.06-.14.11Zm.25-.3.25-.1-.25-.09Zm-.22-1.15c0,.06,0,.09.07.09H13c.07,0,.07,0,.07-.09h0v.31c0,.05,0,.26-.17.26s-.14-.12-.15-.16h0c0,.08-.07.19-.18.19s-.19-.07-.2-.28v-.32Zm.07.25c-.05,0-.06,0-.06.06s.09.12.15.12.16-.09.16-.15v0Zm.29,0c0,.13,0,.15.14.15s.14,0,.14-.1,0-.05,0-.05Zm-.39-.45v-.32h0c0,.06,0,.08,0,.08a.48.48,0,0,0,.14-.05V14.9l-.14,0s0,.05,0,.08h0v-.2h0s0,.07.12.1l.56.22v0l-.54.22c-.11,0-.14.06-.14.11Zm.25-.3.25-.1-.25-.09Zm-.25-.54v-.2l.32-.21v0h-.2c-.08,0-.08,0-.09.08h0v-.33h0c0,.07,0,.09.09.09H13c.09,0,.09,0,.09-.09h0v.32c0,.07,0,.28-.18.28s-.16-.11-.18-.16l-.29.2a0,0,0,0,0,0,0Zm.36-.43c0,.13,0,.18.15.18s.15,0,.15-.12,0-.06,0-.06Zm-.36-.58V13.2h0c0,.07,0,.1.09.1H13c0-.07,0-.17-.17-.19v0h.21v.59h-.21v0c.17,0,.17-.11.17-.18h-.54c-.08,0-.09,0-.09.1Zm0,5v-.32h0c0,.06,0,.08,0,.08a.48.48,0,0,0,.14-.05V18l-.14,0s0,.05,0,.08h0v-.2h0c0,.05,0,.07.12.1l.56.22v0l-.54.22c-.11.05-.14.06-.14.11Zm.25-.3.25-.1-.25-.09Zm.42-.52c0-.06,0-.09-.09-.09H12.5c-.19,0-.23-.11-.23-.21a.15.15,0,0,1,.14-.17.07.07,0,0,1,.07.07.07.07,0,0,1-.07.07s0,0-.07,0,0,0,0,.05.06.06.09.06H13c.07,0,.07,0,.07-.1h0v.35Zm-.67-.66v-.32h0c0,.06,0,.08,0,.08a.48.48,0,0,0,.14-.05v-.22l-.14,0s0,0,0,.08h0v-.2h0c0,.05,0,.07.12.1l.56.21v0l-.54.22c-.11.05-.14.06-.14.11Zm.25-.3.25-.1-.25-.09Zm-.22-1.15c0,.06,0,.09.07.09H13c.07,0,.07,0,.07-.09h0v.31c0,.05,0,.26-.17.26s-.14-.12-.15-.16h0c0,.08-.07.19-.18.19s-.19-.07-.2-.28v-.32Zm.07.25c-.05,0-.06,0-.06.06s.09.12.15.12.16-.09.16-.15v0Zm.29,0c0,.13,0,.15.14.15s.14,0,.14-.1,0-.05,0-.05Zm-.39-.45v-.32h0c0,.06,0,.08,0,.08a.48.48,0,0,0,.14-.05V14.9l-.14,0s0,.05,0,.08h0v-.2h0s0,.07.12.1l.56.22v0l-.54.22c-.11,0-.14.06-.14.11Zm.25-.3.25-.1-.25-.09Zm-.25-.54v-.2l.32-.21v0h-.2c-.08,0-.08,0-.09.08h0v-.33h0c0,.07,0,.09.09.09H13c.09,0,.09,0,.09-.09h0v.32c0,.07,0,.28-.18.28s-.16-.11-.18-.16l-.29.2a0,0,0,0,0,0,0Zm.36-.43c0,.13,0,.18.15.18s.15,0,.15-.12,0-.06,0-.06Zm-.36-.58V13.2h0c0,.07,0,.1.09.1H13c0-.07,0-.17-.17-.19v0h.21v.59h-.21v0c.17,0,.17-.11.17-.18h-.54c-.08,0-.09,0-.09.1Zm-9-.54s0,.05,0,.07l.32.19H4c.09,0,.09,0,.1-.09h0v.34h0c0-.07,0-.09-.1-.09H3.81l-.34.18a.11.11,0,0,0-.06.08h0v-.33h0c0,.07,0,.08,0,.08l.06,0,.23-.11-.19-.11a.19.19,0,0,0-.09,0s0,0,0,.08h0V13Zm.67,1.21v.32h0c0-.06,0-.08,0-.08a.39.39,0,0,0-.14,0v.22l.13,0s0,0,0-.08h0v.2h0c0-.05,0-.07-.12-.1l-.57-.22v0l.54-.22c.11,0,.15-.06.15-.11Zm-.24.3-.25.1.25.09Zm-.25.63c-.07,0-.19.08-.19.2a.09.09,0,0,0,.1.1c.06,0,.08,0,.12-.1l.08-.14a.2.2,0,0,1,.19-.11.21.21,0,0,1,.21.24.75.75,0,0,1,0,.17s0,0,0,0v0H3.85v0c.1,0,.22-.08.22-.2A.12.12,0,0,0,4,15.22c-.06,0-.09,0-.12.12l0,.06c-.09.17-.18.17-.22.17a.2.2,0,0,1-.21-.22c0-.08,0-.12,0-.15s0,0,0,0v0h.22Zm.47,1.31c0-.06,0-.09-.09-.09H3.49c-.07.06-.08.07-.08.09h0v-.21l.44-.34H3.52c-.07,0-.1,0-.11.09h0v-.22h0c0,.08,0,.08.09.08h.6v0l-.56.44H4c.08,0,.1,0,.11-.1h0v.23Zm-.67.81v-.57h.2v0c-.14,0-.17.09-.17.22s0,.08.05.08h.24c0-.1,0-.15-.15-.16v0H3.9v0c-.12,0-.16.06-.16.16H4s.06,0,.06-.09a.27.27,0,0,0-.18-.26v0l.21,0v.57h0c0-.06,0-.09-.08-.09H3.49c-.07,0-.07,0-.08.09Zm.69.19v.35h0c0-.06,0-.1-.08-.1H3.49c-.07,0-.07.05-.08.1h0v-.35h0c0,.05,0,.09.08.09H4c.07,0,.07,0,.08-.09Zm0,1.11s0,0,0-.06,0,0-.08,0H3.51c-.09,0-.09,0-.1.08h0v-.32c0-.08,0-.26.19-.26a.17.17,0,0,1,.15.09.44.44,0,0,1,0,.25H4c.09,0,.09,0,.1-.09h0v.33Zm-.32-.24c0-.12,0-.17-.16-.17s-.16,0-.16.12,0,0,0,.05Zm5.62-4.43a.31.31,0,0,1-.3-.17,1.3,1.3,0,0,0,.3,0,1.17,1.17,0,0,0,.29,0A.28.28,0,0,1,9.36,13.91Zm0,.94a.31.31,0,0,1-.3-.17,1.11,1.11,0,0,0,.3.06,1,1,0,0,0,.29-.06A.28.28,0,0,1,9.36,14.85Zm-.27.53a.3.3,0,0,1-.3-.17,1.17,1.17,0,0,0,.29,0,1.17,1.17,0,0,0,.29,0A.26.26,0,0,1,9.09,15.38Zm-1.58,0a.3.3,0,0,1-.3-.17,1.19,1.19,0,0,0,.3,0,1.17,1.17,0,0,0,.29,0A.28.28,0,0,1,7.51,15.38Zm-.63-.7a1.11,1.11,0,0,0,.3.06,1,1,0,0,0,.29-.06.28.28,0,0,1-.29.17A.31.31,0,0,1,6.88,14.68Zm0-.94a1.17,1.17,0,0,0,.29,0,1.07,1.07,0,0,0,.29,0,.26.26,0,0,1-.28.17A.3.3,0,0,1,6.83,13.74Zm.84.42A1.17,1.17,0,0,0,8,14.11a.26.26,0,0,1-.28.17.32.32,0,0,1-.31-.17A1.3,1.3,0,0,0,7.67,14.16Zm.57-.37a1.3,1.3,0,0,0,.3,0,.28.28,0,0,1-.29.17.3.3,0,0,1-.3-.17A1.17,1.17,0,0,0,8.24,13.79Zm.61.37a1.17,1.17,0,0,0,.29-.05.26.26,0,0,1-.28.17.32.32,0,0,1-.31-.17A1.3,1.3,0,0,0,8.85,14.16Zm1-.42a.92.92,0,0,0-.17-.82A.75.75,0,0,0,9,12.67a.92.92,0,0,0-.79-.45.78.78,0,0,0-.73.44.92.92,0,0,0-.8.42c-.23.44-.08.65-.08.65a.87.87,0,0,0-.25.71,1.15,1.15,0,0,0,.4.58.69.69,0,0,0,.53.58A1.25,1.25,0,0,0,8,15.53v3.59s-.22.45-.54.45c0,0,0,.2.54.2,0,0,.07.4.22.4a.4.4,0,0,0,.23-.4s.44,0,.53-.19c0,0-.5-.14-.5-.46V15.53a1.22,1.22,0,0,0,.3.13c.06,0,.75,0,.87-.63a1,1,0,0,0,.45-.74A.83.83,0,0,0,9.85,13.74ZM5.17,16.67V17l.17.34.18-.43-.06-.26.15-.07.15.15-.33,1.32.05.36,0,.2.1.13,0,.15-.11.13v.5H6l-.29-.23V19.1L6,19l.08-.71L7,18.07l.28-.58.22-.17.21-.09.06-.29L8,16.7v-.31a6.56,6.56,0,0,1-.64.62.24.24,0,0,1-.3,0,1,1,0,0,1,0-.17s.2-.06.2-.06l0-.13,0-.1a.14.14,0,0,0-.11,0c0,.13-.14.07-.14,0s.15-.09.18-.1,0-.18,0-.18l-.11-.09-.21,0c-.19-.12-.65.15-.65.15a.36.36,0,0,1,0,.22,2.07,2.07,0,0,0-.09.43,1.58,1.58,0,0,0,.11.33s0,.26,0,.26a.91.91,0,0,0-.5.39l0,0L6,16.74l-.35-.42Zm1.63-.31v-.11l.17,0Zm-.2.53.12-.16v.33Zm-.19.36.12-.17v.34Zm0-.72.12-.16v.33Zm-.15.36.12-.16v.33Zm0,1.48.4.25,0,.37-.3.13v.21l.31.24H6.14ZM8,17.07l-.31.33-.23.09-.21.42.22-.06.25-.16L8,17.38Zm2.86-.75-.35.42.3,1.21-.05,0a.9.9,0,0,0-.51-.39s0-.22,0-.26a2.38,2.38,0,0,0,.12-.33,2.07,2.07,0,0,0-.09-.43.4.4,0,0,1,0-.22s-.45-.27-.65-.15l-.2,0-.11.09s-.05.18,0,.18.18,0,.18.1-.11.17-.14,0a.14.14,0,0,0-.11,0l0,.1,0,.13s.19,0,.2.06V17a.25.25,0,0,1-.31,0,6.56,6.56,0,0,1-.64-.62v.31l.25.24.05.29.22.09.22.17.28.58.88.18.09.71.29.14v.22l-.29.23h.55v-.5l-.11-.13,0-.15.09-.13v-.2l0-.36-.34-1.32.16-.15.14.07-.06.26.18.43.17-.34v-.36Zm-1.33,0,.17,0v.11Zm.25.78v-.33l.12.16Zm.2.36v-.34l.12.17Zm0-.72v-.33l.12.16Zm.15.36v-.33l.12.16Zm.1,1.31-.4.25,0,.37.31.13v.21l-.32.24h.59ZM8.5,17.07l.31.33.23.09.22.42L9,17.85l-.25-.16-.28-.31Zm4.31,3.54-.3-.3-.27.27L12,20.31l-.3.3.26.27-.26.27.3.31.26-.27.27.27.3-.31-.27-.27Zm-8.1,0-.3-.3-.26.27-.27-.27-.3.3.27.27-.27.27.3.31.27-.27.26.27.3-.31-.27-.27Zm8.42-9.95-.3-.3-.27.27-.27-.27-.3.3.27.27L12,11.2l.3.31.27-.27.27.27.3-.31-.27-.27Zm-8.6,0-.3-.3L4,10.63l-.26-.27-.3.3.26.27-.26.27.3.31L4,11.24l.27.27.3-.31-.27-.27ZM15.76,5.71l-.3-.09v0c.06,0,.08,0,.09,0a.71.71,0,0,0,0-.21l-.21-.06a1.53,1.53,0,0,0-.1.17.07.07,0,0,0,.06.09v0l-.19-.06v0c.06,0,.08,0,.15-.14l.43-.75h0l0,.84c0,.17,0,.22,0,.23Zm-.18-.43V4.89l-.19.33Zm-.48.23-.19,0-.07-.54h0l-.07.31c0,.12,0,.13,0,.16v0l-.31-.09v0c.06,0,.08,0,.12-.12l.17-.68c0-.13,0-.14,0-.17v0l.3.08a.26.26,0,0,1,.19.35c0,.19-.15.21-.21.22l.08.5a.07.07,0,0,0,0,0Zm-.27-.65c.12,0,.17,0,.22-.18s0-.24-.05-.26-.06,0-.08,0Zm-.39.48-.31-.08v0c.06,0,.08,0,.09,0a1.47,1.47,0,0,0,0-.21l-.21,0a.86.86,0,0,0-.08.18c0,.06,0,.08.06.09v0l-.19-.05v0s.07,0,.13-.15l.4-.8h0l0,.86c0,.18,0,.24.06.24Zm-.21-.43v-.4l-.17.35ZM14,4.15c-.06,0-.1,0-.11.12l-.06.63c0,.26-.14.3-.25.3a.17.17,0,0,1-.15-.2c0-.08.05-.11.08-.11a.11.11,0,0,1,.06.12s0,0,0,.09,0,.05,0,.05.07-.08.08-.12l.07-.8c0-.1,0-.1-.1-.11v0l.36,0Zm-.61,1-.3-.06V5c.06,0,.08,0,.09,0a1.64,1.64,0,0,0,0-.22l-.21,0a1.85,1.85,0,0,0-.07.19A.07.07,0,0,0,13,5V5l-.19,0V5c.06,0,.08,0,.12-.16L13.24,4h0l.08.86c0,.18,0,.23.07.24Zm-.23-.42,0-.4L13,4.65Zm-.44.3-.56-.08v0c.05,0,.08,0,.1-.11L12.38,4c0-.11,0-.12-.07-.13v0l.34,0v0c-.07,0-.1,0-.11.13l-.09.76c0,.08,0,.09.07.1s.22-.11.28-.28h0Zm-.59-.07-.32,0v0c.06,0,.08,0,.09,0a1.64,1.64,0,0,0,0-.22l-.22,0a1.64,1.64,0,0,0-.07.2c0,.06,0,.07.07.08v0l-.19,0v0c.06,0,.08,0,.12-.17L12,3.78h0l.1.87c0,.17,0,.23.08.24Zm-.21-.42,0-.4-.14.37Zm-1,.22c.06,0,.09,0,.09-.1l.07-.78c0-.1,0-.1-.07-.12v0l.3,0c.26,0,.33.32.31.56s-.15.53-.4.52l-.3,0Zm.25-.09c0,.07,0,.1.05.1s.2-.08.23-.46c0-.15,0-.49-.15-.5s-.06,0-.06.07Zm-.31.12-.31,0V4.68c.06,0,.08,0,.08,0a1.77,1.77,0,0,0,0-.21l-.22,0a1.32,1.32,0,0,0,0,.2c0,.06,0,.07.07.07v0h-.2v0c.05,0,.07-.06.1-.18l.28-.84h0l.15.85c0,.17,0,.22.09.22Zm-.27-.4L10.51,4l-.12.38Zm-.26-.69c-.05,0-.07,0-.07.13l0,.5a.73.73,0,0,1-.06.3.23.23,0,0,1-.39,0,.41.41,0,0,1,0-.29l0-.52c0-.14,0-.14-.08-.15v0H10v0c-.06,0-.1,0-.1.14l0,.53c0,.09,0,.31.13.31s.18-.23.18-.33l0-.48c0-.1,0-.15-.09-.16v0h.22Zm-.67.59c-.05,0-.08,0-.08.14v.2a.48.48,0,0,1-.27.09c-.24,0-.33-.3-.32-.57s.16-.56.36-.55.16.09.19.09,0,0,0-.07h0l0,.37h0c0-.14-.1-.33-.21-.33s-.19.22-.2.49c0,.12,0,.51.16.51s.11,0,.11-.11V4.35c0-.1,0-.1-.1-.11v0h.33ZM8.17,3.58h.56v.33h0c0-.23-.08-.27-.21-.28s-.07,0-.08.08v.37c.09,0,.14,0,.16-.23h0v.54h0c0-.2-.06-.25-.15-.25v.39c0,.07,0,.09.08.09s.2,0,.26-.28h0l0,.33H8.16v0c.06,0,.09,0,.09-.11V3.73c0-.1,0-.11-.09-.11ZM7.5,4.64c.06,0,.07,0,.07-.11V3.74c0-.1-.05-.1-.08-.11v0h.29c.27,0,.36.27.36.52s-.09.55-.34.57H7.5Zm.23-.11c0,.06,0,.09.06.09S8,4.51,8,4.13c0-.15,0-.49-.2-.49s-.06,0-.06.08Zm-1.08.15c.06,0,.08,0,.08-.11l0-.78c0-.1-.05-.1-.08-.11v0H6.9c.27,0,.37.26.38.5S7.2,4.68,7,4.7l-.31,0Zm.23-.12c0,.06,0,.09.06.09s.19-.11.17-.49c0-.15,0-.48-.21-.48s-.05,0-.05.08Zm-.25.16-.31,0v0s.07,0,.07-.07,0-.15-.06-.2l-.22,0a1.88,1.88,0,0,0,0,.2c0,.06.06.06.09.06v0l-.2,0v0s.06-.07.08-.19l.16-.87h0l.27.81c0,.16.07.21.12.21Zm-.32-.35L6.19,4l-.07.38Zm-.95.42c.06,0,.08,0,.07-.11l0-.78c0-.1,0-.1-.09-.1v0l.3,0c.27,0,.37.25.38.5s-.07.54-.32.57l-.3,0Zm.23-.12c0,.06,0,.09.06.09s.19-.12.17-.5c0-.14-.05-.48-.22-.47s-.06,0,0,.08Zm-.25.16L5,4.86v0s.08,0,.08-.12L5,3.92c0-.1,0-.1-.1-.1v0l.34,0v0s-.09,0-.08.12l.05.78c0,.1,0,.1.1.1Zm-.48-.72c0-.1-.11-.27-.22-.25s-.1.06-.09.16a.21.21,0,0,0,.13.16l.15.09A.37.37,0,0,1,5,4.54c0,.13,0,.32-.2.35a.46.46,0,0,1-.17,0s0,0,0,.06h0l0-.37h0c0,.15.12.32.24.3s.1-.17.09-.19-.06-.13-.13-.17l-.07,0a.39.39,0,0,1-.21-.3c0-.1,0-.3.18-.33s.12,0,.15,0,0,0,0-.06h0l0,.33Zm-.34.83-.2,0L4.06,4.5H4l0,.32c0,.12,0,.12.1.13V5L3.86,5V5c.07,0,.09,0,.07-.15l-.09-.7c0-.14,0-.14-.1-.14V4l.3,0a.25.25,0,0,1,.31.24.27.27,0,0,1-.12.29l.25.43,0,0ZM4,4.45c.13,0,.17-.06.14-.26S4.11,4,4,4,4,4,4,4.05Zm-1-.35L3.63,4l.05.31h0c-.06-.22-.14-.24-.27-.22s-.07,0-.05.09l.06.35c.09,0,.14-.06.12-.26h0l.09.52h0c0-.19-.1-.22-.2-.2L3.48,5c0,.07,0,.08.1.07s.18-.08.2-.32h0l0,.33-.55.11v0c.05,0,.08,0,.06-.13l-.13-.74c0-.1-.06-.09-.1-.09Zm0,0S3,4.19,3,4.28L3,5.2H3l-.44-.83c0-.08-.06-.08-.1-.08v0l.32-.07v0c-.06,0-.09,0-.07.09s0,.08.05.12L3,4.86V4.34a.34.34,0,0,0,0-.1c0-.06,0-.06-.1,0v0l.2-.05ZM2.62,5.27l-.32.09v0s.08,0,.06-.13l-.17-.73c0-.1-.07-.1-.12-.09v0l.33-.09v0s-.09,0-.06.13l.17.73c0,.09.06.09.12.08Zm-1,.19c.06,0,.08,0,.05-.14L1.5,4.63c-.08-.09-.09-.09-.11-.09v0l.2-.06L2.07,5h0L2,4.55c0-.09,0-.14-.12-.13v0l.2,0v0C2,4.4,2,4.44,2,4.51l.22.86h0L1.57,4.7h0l.16.58c0,.11.05.13.12.12v0l-.21.06Zm-.28-.9s-.06.05,0,.15l.15.46a.73.73,0,0,1,0,.29.26.26,0,0,1-.15.17.26.26,0,0,1-.22,0c-.06,0-.09-.09-.14-.24L.84,4.88c0-.13-.06-.12-.12-.11v0L1,4.63v0c-.05,0-.08,0,0,.16l.15.48c0,.08.09.28.22.24s.1-.28.07-.37l-.14-.44c0-.09-.06-.13-.14-.11v0l.2-.07Zm7,1.37a1,1,0,0,1,.89.66,1.42,1.42,0,0,0-.89-.36Zm-.2,0v.3a1.4,1.4,0,0,0-.89.36A1,1,0,0,1,8.15,5.93Zm-1,1a1.52,1.52,0,0,1,1.11-.34h0A1.52,1.52,0,0,1,9.36,7v.5a1.6,1.6,0,0,1-1.11.33,1.62,1.62,0,0,1-1.12-.33Zm.18,1s0-.06,0-.06a2,2,0,0,0,.83.3v.17a.85.85,0,0,1-.28,0l-.08.17s.06.11.44.11h0c.37,0,.44-.11.44-.11L8.6,8.32a.83.83,0,0,1-.28,0V8.19a2.1,2.1,0,0,0,.84-.3s0,0,0,.06-.31.36-.31.4v.33A.74.74,0,0,1,8.25,9a.73.73,0,0,1-.62-.27V8.35A5.09,5.09,0,0,0,7.31,8ZM11.6,19a1.42,1.42,0,0,1-.25,1,1,1,0,0,1-.88.3H9.27a1.5,1.5,0,0,0-1,.48,1.36,1.36,0,0,0-1-.48H6A1,1,0,0,1,5.2,20a1.22,1.22,0,0,1-.26-.83V12H11.6Zm.29-9.12h1.69v10.6a2,2,0,0,1-.4,1.27,1.44,1.44,0,0,1-1.12.44H9.77a2.36,2.36,0,0,0-1.52.67,2.36,2.36,0,0,0-1.53-.67H4.44a1.42,1.42,0,0,1-1.12-.44,2,2,0,0,1-.41-1.27V9.85H4.6a1.5,1.5,0,0,0,1.06,1l.62.08a1,1,0,0,1,.63.31c.14.11.41.37.46.41a.35.35,0,0,0,.09.07H4.68v7.52a1.41,1.41,0,0,0,.35.9,1.38,1.38,0,0,0,.83.38H7.31a1.64,1.64,0,0,1,.94.52,1.62,1.62,0,0,1,1-.52h1.37a1.28,1.28,0,0,0,.93-.43,1.45,1.45,0,0,0,.31-.93V11.71H9l.09-.07s.31-.3.45-.41a1.08,1.08,0,0,1,.63-.31l.62-.08A1.5,1.5,0,0,0,11.89,9.85Zm.25-.21-.08-.05.13,0L11.9,9.3a2.62,2.62,0,0,0,.29,0s-.36-.37-.36-.37.38.05.36,0-.35-.35-.33-.34.32.06.31,0-.31-.32-.31-.32.33.07.31,0S11.83,8,11.86,8l.3.08L12,7.74l2.8,1.41-.19,0,.3.3-.32,0,.32.29h-.31l.3.3s-.33,0-.31,0,.34.33.31.32-.34,0-.31,0,.33.31.29.31a2,2,0,0,0-.31,0,2.4,2.4,0,0,1,.23.29l-1-.52V9.64Zm-7.29,0A1.17,1.17,0,0,0,5,9.1V7.36a.65.65,0,0,0-.52-.67L2.26,5.92a27.89,27.89,0,0,1,6-.58h0a27.85,27.85,0,0,1,6,.58L12,6.69a.65.65,0,0,0-.52.67V9.1a1,1,0,0,0,.17.54h0l-2.55-1s-.07-.19,0-.27a1.61,1.61,0,0,0,.43-.69.4.4,0,0,0,.27-.38.38.38,0,0,0-.22-.38S9.35,5.67,8.25,5.66h0c-1.1,0-1.35,1.26-1.35,1.26a.39.39,0,0,0-.23.38.4.4,0,0,0,.28.38,1.51,1.51,0,0,0,.43.69c.1.08,0,.27,0,.27l-2.54,1Zm-2.15.87-1,.51s.2-.27.23-.29a2.16,2.16,0,0,0-.31,0s.27-.29.29-.31-.27,0-.3,0,.29-.29.3-.32-.3,0-.3,0l.3-.3H1.63l.31-.29-.32,0,.31-.3-.2,0,2.8-1.41a3.52,3.52,0,0,1-.2.31A2.75,2.75,0,0,0,4.63,8s-.29.32-.3.35.3,0,.3,0a3.13,3.13,0,0,0-.3.32s.28,0,.3,0-.3.3-.32.34.36,0,.36,0-.34.36-.36.37a2.53,2.53,0,0,0,.29,0l-.3.25.14,0-.09.05H2.7ZM7.76,3C.22,3.09,0,4.91,0,4.91v2c0,.66.23.65.48.77s2.11.71,2.11.71v.09l-.85.42a.78.78,0,0,0-.48.68v2a.48.48,0,0,0,.26.51l.58.47L.2,13.82l1.31.43v1.44L2.7,14.9v5.56a2.17,2.17,0,0,0,.46,1.4,1.62,1.62,0,0,0,1.28.51H6.72a2.93,2.93,0,0,1,1.53.71,2.75,2.75,0,0,1,1.52-.71h2.29a1.61,1.61,0,0,0,1.27-.51,2.17,2.17,0,0,0,.46-1.4V14.91l1.19.78V14.25l1.3-.43-1.89-1.25s.37-.31.58-.47a.48.48,0,0,0,.26-.51v-2a.78.78,0,0,0-.48-.68l-.86-.42V8.38s2-.64,2.12-.71.48-.11.48-.77v-2S16.26,3.09,8.73,3V2.6H8.55V1.93h.63v.16h.61v-1H9.17v.15H8.55V.6h.18V0h-1V.6h.18v.64H7.32V1.09H6.7v1h.61V1.93h.63V2.6H7.76ZM16.06,5s-.19.07-.14.09.17.2.14.19-.18,0-.14.07.2.22.16.21-.2,0-.17.06.2.23.16.23-.25,0-.18,0,.22.3.18.29-.27,0-.19,0a.89.89,0,0,1,.13.28C14.08,5,8.34,5.08,8.25,5.08h0C8.16,5.08,2.41,5,.48,6.46a.71.71,0,0,1,.13-.28c.08-.07-.16,0-.2,0s.12-.24.19-.29-.15,0-.19,0,.13-.19.16-.23S.44,5.52.4,5.53s.12-.18.17-.21S.45,5.24.42,5.25s.09-.16.15-.19S.47,5,.42,5s.06-.14.1-.16S.4,4.7.39,4.69,1.52,3.27,8.25,3.27h0c6.72,0,7.85,1.42,7.85,1.42s-.18.1-.14.12S16.12,5,16.06,5Zm-6.4-3H9.33V1.81h-.9V2.7H8.6V3H7.9V2.7h.16V1.81h-.9v.13H6.83V1.25h.36v.14h.87V.49H7.9V.16h.7V.49H8.43v.9H9.3V1.25h.36Zm1.26,8.6a4,4,0,0,1-.94.2,1.29,1.29,0,0,0-.74.45,1.36,1.36,0,0,1-1,.51,1.38,1.38,0,0,1-1-.51,1.3,1.3,0,0,0-.75-.45,3.88,3.88,0,0,1-.93-.2,1.62,1.62,0,0,1-.7-.65L7.11,9l-.8.88L7.72,9l-.43,1.47.8-1.35L8.24,11h0l.16-1.87.8,1.35L8.77,9l1.42.89L9.39,9l2.22.89A1.6,1.6,0,0,1,10.92,10.54Z"/><rect class="cls-1" x="22.68" y="0.19" width="0.68" height="22.71"/><path class="cls-2" d="M29,11.28c0-5.08,3.89-8.75,9.11-8.75A8.61,8.61,0,0,1,44.8,5.38l-2,1.92a6,6,0,0,0-4.54-2,5.81,5.81,0,0,0-6.08,6,5.81,5.81,0,0,0,6.08,6,5.92,5.92,0,0,0,4.54-2l2,2A8.65,8.65,0,0,1,38.05,20C32.85,20,29,16.36,29,11.28Z"/><path class="cls-3" d="M47.32,12.38V2.78h3.16v9.47c0,3.5,1.58,5,4.32,5s4.3-1.51,4.3-5V2.78h3.11v9.6c0,4.95-2.79,7.65-7.43,7.65S47.32,17.33,47.32,12.38Z"/><path class="cls-4" d="M65.16,11.28c0-5.08,3.89-8.75,9.11-8.75A8.63,8.63,0,0,1,81,5.38L79,7.3a6,6,0,0,0-4.54-2,5.81,5.81,0,0,0-6.07,6,5.81,5.81,0,0,0,6.07,6,5.9,5.9,0,0,0,4.54-2l2.05,2A8.67,8.67,0,0,1,74.25,20C69.05,20,65.16,16.36,65.16,11.28Z"/><path class="cls-5" d="M96.54,17.14v2.65H83.79v-17H96.2V5.43H86.94V9.85h8.22v2.6H86.94v4.69Z"/><path class="cls-6" d="M111.61,15.85h-8.5l-1.68,3.94H98.18l7.65-17h3.11l7.68,17h-3.3Zm-1-2.48-3.21-7.43-3.18,7.43Z"/><text class="cls-7" transform="translate(47.67 27.24)">El mejor lugar para el talento</text></g></g></svg>