<svg xmlns="http://www.w3.org/2000/svg" viewBox="0 0 330.31 80.27"><defs><style>.cls-1,.cls-2{fill:#fff;}.cls-2{font-size:13.6px;font-family:Galvji-BoldOblique, Galvji;font-weight:700;font-style:oblique;}</style></defs><title>Recurso 12</title><g id="Capa_2" data-name="Capa 2"><g id="Capa_2-2" data-name="Capa 2"><path class="cls-1" d="M26.41,6.68V6.14h-.85v.54H25v.86h.54v.55h.85V7.54h.53V6.68Zm.4.73h-.54V8h-.58V7.41h-.54V6.82h.54V6.27h.58v.55h.54Zm-6-.73V6.14H20v.54h-.53v.86H20v.55h.85V7.54h.53V6.68Zm.41.73h-.54V8h-.59V7.41h-.54V6.82h.54V6.27h.59v.55h.54Zm5.15-6.18V.68h-.85v.55H25v.85h.54v.55h.85V2.08h.53V1.23Zm.4.72h-.54V2.5h-.58V2h-.54V1.36h.54V.81h.58v.55h.54Zm-6-.72V.68H20v.55h-.53v.85H20v.55h.85V2.08h.53V1.23Zm.41.72h-.54V2.5h-.59V2h-.54V1.36h.54V.81h.59v.55h.54Zm-.88,18.32.35-.85.36.85-.36.84Zm1.05,0,.45-1.07.45,1.07-.45,1.07Zm4.59,0-.36-.85-.36.85.36.84Zm-1.06,0-.45-1.07-.45,1.07.45,1.07Zm-1.28,0L23.16,19l-.53,1.23.53,1.23ZM34.74,52.05v-.9h.07c0,.18,0,.23.11.23a1.78,1.78,0,0,0,.39-.13v-.62a1.68,1.68,0,0,0-.38-.12c-.11,0-.11.13-.12.23h-.07v-.57h.07c0,.15.12.19.33.28l1.59.61v.07l-1.52.62c-.31.13-.41.17-.4.3Zm.68-.84.7-.28-.7-.26Zm1.19-1.46c0-.16,0-.25-.26-.25H35.09c-.52,0-.63-.32-.63-.6a.41.41,0,0,1,.37-.47.2.2,0,1,1,0,.39c-.11,0-.1-.07-.19-.07s-.08,0-.08.12.16.18.25.18h1.6c.2,0,.2-.12.2-.28h.07v1Zm-1.87-1.86V47h.07c0,.17,0,.22.11.22a2.43,2.43,0,0,0,.39-.12v-.63a1.68,1.68,0,0,0-.38-.12c-.11,0-.11.13-.12.22h-.07V46h.07c0,.14.12.18.33.27l1.59.61V47l-1.52.63c-.31.12-.41.16-.4.29Zm.68-.84.7-.28-.7-.25Zm-.61-3.21c0,.15,0,.24.21.24h1.39c.19,0,.2-.12.2-.24h.07v.85c0,.15,0,.72-.45.72s-.4-.31-.44-.43h0c0,.23-.19.53-.51.53s-.53-.2-.54-.78v-.89Zm.2.68c-.13,0-.18,0-.18.17,0,.3.26.34.43.34.42,0,.46-.25.46-.42v-.09Zm.81,0c0,.37.11.43.41.43s.37-.06.37-.28-.08-.15-.14-.15Zm-1.08-1.26v-.89h.07c0,.17,0,.22.11.22a1.78,1.78,0,0,0,.39-.13v-.62a2.55,2.55,0,0,0-.38-.12c-.11,0-.11.13-.12.23h-.07v-.57h.07c0,.15.12.19.33.28l1.59.61v.08L35.21,43c-.31.13-.41.17-.4.3Zm.68-.84.7-.28-.7-.26Zm-.68-1.52v-.56l.9-.58v-.07h-.56c-.24,0-.25.06-.27.24h-.07V39h.07c0,.19,0,.24.27.24h1.27c.25,0,.25-.08.26-.24h.07v.88c0,.2,0,.79-.5.79a.5.5,0,0,1-.49-.44l-.82.56a.11.11,0,0,0-.06.11Zm1-1.21c0,.36.07.51.44.51s.42-.12.42-.34,0-.16-.12-.17Zm-1-1.63v-1h.07c0,.2,0,.26.27.26H36.6a.49.49,0,0,0-.49-.53v-.08h.57v1.65h-.57v-.08a.49.49,0,0,0,.49-.53H35.08c-.25,0-.26.07-.27.28Zm0,14v-.9h.07c0,.18,0,.23.11.23a1.78,1.78,0,0,0,.39-.13v-.62a1.68,1.68,0,0,0-.38-.12c-.11,0-.11.13-.12.23h-.07v-.57h.07c0,.15.12.19.33.28l1.59.61v.07l-1.52.62c-.31.13-.41.17-.4.3Zm.68-.84.7-.28-.7-.26Zm1.19-1.46c0-.16,0-.25-.26-.25H35.09c-.52,0-.63-.32-.63-.6a.41.41,0,0,1,.37-.47.2.2,0,1,1,0,.39c-.11,0-.1-.07-.19-.07s-.08,0-.08.12.16.18.25.18h1.6c.2,0,.2-.12.2-.28h.07v1Zm-1.87-1.86V47h.07c0,.17,0,.22.11.22a2.43,2.43,0,0,0,.39-.12v-.63a1.68,1.68,0,0,0-.38-.12c-.11,0-.11.13-.12.22h-.07V46h.07c0,.14.12.18.33.27l1.59.61V47l-1.52.63c-.31.12-.41.16-.4.29Zm.68-.84.7-.28-.7-.25Zm-.61-3.21c0,.15,0,.24.21.24h1.39c.19,0,.2-.12.2-.24h.07v.85c0,.15,0,.72-.45.72s-.4-.31-.44-.43h0c0,.23-.19.53-.51.53s-.53-.2-.54-.78v-.89Zm.2.68c-.13,0-.18,0-.18.17,0,.3.26.34.43.34.42,0,.46-.25.46-.42v-.09Zm.81,0c0,.37.11.43.41.43s.37-.06.37-.28-.08-.15-.14-.15Zm-1.08-1.26v-.89h.07c0,.17,0,.22.11.22a1.78,1.78,0,0,0,.39-.13v-.62a2.55,2.55,0,0,0-.38-.12c-.11,0-.11.13-.12.23h-.07v-.57h.07c0,.15.12.19.33.28l1.59.61v.08L35.21,43c-.31.13-.41.17-.4.3Zm.68-.84.7-.28-.7-.26Zm-.68-1.52v-.56l.9-.58v-.07h-.56c-.24,0-.25.06-.27.24h-.07V39h.07c0,.19,0,.24.27.24h1.27c.25,0,.25-.08.26-.24h.07v.88c0,.2,0,.79-.5.79a.5.5,0,0,1-.49-.44l-.82.56a.11.11,0,0,0-.06.11Zm1-1.21c0,.36.07.51.44.51s.42-.12.42-.34,0-.16-.12-.17Zm-1-1.63v-1h.07c0,.2,0,.26.27.26H36.6a.49.49,0,0,0-.49-.53v-.08h.57v1.65h-.57v-.08a.49.49,0,0,0,.49-.53H35.08c-.25,0-.26.07-.27.28ZM9.58,36.57a.24.24,0,0,0,.12.19l.89.52h.53c.24,0,.25-.06.27-.25h.07v1h-.07c0-.2,0-.26-.27-.26H10.7l-1,.5a.31.31,0,0,0-.16.22H9.51v-.92h.07c0,.19,0,.23.1.23a.4.4,0,0,0,.16-.08l.67-.32L10,37.05a.63.63,0,0,0-.26-.11c-.11,0-.12.11-.13.24H9.51v-.61ZM11.46,40v.9h-.07c0-.17,0-.22-.11-.22a2.43,2.43,0,0,0-.39.12v.62a2.34,2.34,0,0,0,.37.13c.12,0,.12-.14.13-.23h.07v.56h-.07c0-.15-.13-.19-.34-.27L9.47,41v-.08L11,40.26c.3-.13.41-.18.4-.31Zm-.68.85-.7.27.7.27Zm-.69,1.77c-.2,0-.53.22-.53.54a.27.27,0,0,0,.27.3c.16,0,.22,0,.34-.28l.22-.41a.56.56,0,0,1,.52-.31.61.61,0,0,1,.6.69,2.23,2.23,0,0,1-.09.47c0,.06.05.07.09.09v.07h-.7v-.07c.28-.06.61-.22.61-.57a.31.31,0,0,0-.32-.35c-.19,0-.26.13-.35.31l-.1.19c-.23.47-.48.47-.61.47a.55.55,0,0,1-.57-.61,2.13,2.13,0,0,1,.09-.43c0-.07,0-.08-.09-.09v-.09h.62Zm1.3,3.67c0-.17-.05-.25-.23-.25H9.79c-.2.16-.21.2-.21.24H9.51v-.59l1.23-1H9.87c-.17,0-.27,0-.29.26H9.51v-.6h.07c0,.2.09.22.23.22h1.7v.07L10,45.86H11.1c.21,0,.26-.06.29-.27h.07v.64ZM9.51,48.51V46.92h.58V47c-.41.07-.48.26-.48.64,0,.15,0,.2.13.2h.67c0-.27-.07-.41-.42-.45v-.07h1v.07c-.36,0-.45.18-.45.45h.7c.12,0,.16,0,.16-.23a.71.71,0,0,0-.51-.73v-.08l.6.11v1.61h-.07c0-.15,0-.24-.2-.24H9.79c-.19,0-.2.12-.21.24Zm2,.54v1h-.07c0-.15,0-.26-.2-.26H9.79c-.19,0-.2.13-.21.26H9.51v-1h.07c0,.13,0,.26.21.26h1.4c.18,0,.19-.1.2-.26Zm-.07,3.11c0-.14,0-.14-.05-.16s-.05-.07-.22-.07H9.84c-.23,0-.24.09-.26.23H9.51v-.89c0-.22.05-.72.53-.72a.5.5,0,0,1,.44.25,1.33,1.33,0,0,1,.11.68h.53c.24,0,.24-.06.27-.24h.07v.92Zm-.9-.68c0-.34-.08-.45-.44-.45s-.44.09-.44.32,0,.12.1.13ZM26.29,39a.86.86,0,0,1-.85-.47,3.35,3.35,0,0,0,.83.15,3.12,3.12,0,0,0,.82-.15A.76.76,0,0,1,26.29,39Zm0,2.66a.86.86,0,0,1-.85-.48,3.17,3.17,0,0,0,.83.16,3,3,0,0,0,.82-.16A.76.76,0,0,1,26.29,41.7Zm-.77,1.47a.86.86,0,0,1-.85-.48,3.06,3.06,0,0,0,.83.16,3,3,0,0,0,.82-.16A.76.76,0,0,1,25.52,43.17Zm-4.43,0a.88.88,0,0,1-.86-.48,3.18,3.18,0,0,0,.84.16,3,3,0,0,0,.82-.16A.77.77,0,0,1,21.09,43.17Zm-1.77-2a3.06,3.06,0,0,0,.83.16,3,3,0,0,0,.82-.16.76.76,0,0,1-.8.48A.86.86,0,0,1,19.32,41.22Zm-.16-2.65a3.36,3.36,0,0,0,.84.15,3.12,3.12,0,0,0,.82-.15A.76.76,0,0,1,20,39,.88.88,0,0,1,19.16,38.57Zm2.38,1.19a3.23,3.23,0,0,0,.82-.15.77.77,0,0,1-.8.47.87.87,0,0,1-.86-.47A3.36,3.36,0,0,0,21.54,39.76Zm1.61-1a3.11,3.11,0,0,0,.81-.15.76.76,0,0,1-.8.47.86.86,0,0,1-.85-.47A3.36,3.36,0,0,0,23.15,38.72Zm1.7,1a3.12,3.12,0,0,0,.82-.15.77.77,0,0,1-.8.47.85.85,0,0,1-.85-.47A3.14,3.14,0,0,0,24.85,39.76Zm2.8-1.18a2.65,2.65,0,0,0-.47-2.32,2.12,2.12,0,0,0-1.83-.68,2.58,2.58,0,0,0-2.21-1.27,2.2,2.2,0,0,0-2.05,1.23,2.57,2.57,0,0,0-2.25,1.18c-.64,1.24-.22,1.83-.22,1.83a2.37,2.37,0,0,0-.71,2A3.26,3.26,0,0,0,19,42.17a1.94,1.94,0,0,0,1.47,1.63,3.78,3.78,0,0,0,2.06-.19V53.69s-.62,1.24-1.51,1.24c0,0,.13.58,1.51.58,0,0,.19,1.12.63,1.12a1.12,1.12,0,0,0,.64-1.12s1.22,0,1.48-.55c0,0-1.41-.39-1.41-1.27V43.61s.7.39.86.35a2.33,2.33,0,0,0,2.44-1.76,2.84,2.84,0,0,0,1.25-2.09A2.34,2.34,0,0,0,27.65,38.58ZM14.5,46.81l0,1,.47,1,.51-1.22-.17-.71.41-.2.43.42-.93,3.69.14,1-.05.56.27.34.11.44-.31.35v1.42H17l-.81-.66v-.59l.81-.42.24-2,2.48-.52.79-1.6.63-.5.6-.24.14-.83.7-.67V46a18,18,0,0,1-1.8,1.76.67.67,0,0,1-.85,0,3.48,3.48,0,0,1,0-.46c0-.08.56-.17.56-.17l.12-.37-.08-.27a.44.44,0,0,0-.31-.08c-.07.37-.38.21-.38-.09s.43-.25.5-.27,0-.51,0-.51l-.32-.25-.57.07c-.56-.34-1.83.42-1.83.42a1,1,0,0,1-.07.61,4.74,4.74,0,0,0-.24,1.23,4.46,4.46,0,0,0,.31.9c0,.12,0,.76,0,.76a2.55,2.55,0,0,0-1.41,1.08.25.25,0,0,1-.15.07L16.83,47l-1-1.17Zm4.59-.88,0-.3.48.08Zm-.55,1.49.33-.46v.93Zm-.55,1,.34-.47v.93Zm0-2,.34-.46v.92Zm-.41,1,.33-.46v.93Zm0,4.16,1.13.68.1,1.06-.86.37v.59l.88.66H17.24Zm4.93-3.67-.86.93-.65.28-.6,1.17.62-.18.7-.46.77-.86Zm8-2.1L29.6,47l.84,3.43a.25.25,0,0,1-.15-.07,2.55,2.55,0,0,0-1.42-1.08,7.53,7.53,0,0,1,0-.76,4.46,4.46,0,0,0,.31-.9A4.74,4.74,0,0,0,29,46.37a1,1,0,0,1-.07-.61s-1.27-.76-1.83-.42l-.57-.07-.32.25s-.12.48,0,.51.5-.05.5.27-.31.46-.38.09a.47.47,0,0,0-.32.08l-.07.27.12.37s.53.09.56.17a3.48,3.48,0,0,1,0,.46.67.67,0,0,1-.85,0A18,18,0,0,1,23.9,46v.88l.7.67.14.83.6.24.63.5.79,1.6,2.48.52.24,2,.81.42v.59l-.81.66H31V53.47l-.32-.35.13-.44.26-.34L31,51.78l.14-1-.93-3.69.43-.42.41.2-.17.71.51,1.22.48-1,0-1Zm-3.75-.1.48-.08,0,.3Zm.72,2.18V47l.34.46Zm.56,1V48l.33.47Zm0-2V46l.33.46Zm.4,1V47l.34.46Zm.3,3.69-1.13.68-.1,1.06.86.37v.59l-.89.66h1.64Zm-4.93-3.67.86.93.65.28.6,1.17-.62-.18-.7-.46-.77-.86ZM36,57.86,35.11,57l-.75.76L33.62,57l-.84.85.75.76-.75.77.84.85.74-.76.75.76.84-.85-.75-.77Zm-22.72,0L12.39,57l-.75.76L10.89,57l-.84.85.75.76-.75.77.84.85.75-.76.75.76.84-.85-.75-.77ZM36.85,29.93,36,29.08l-.75.76-.74-.76-.84.85.74.76-.74.76.84.86.74-.77.75.77.84-.86-.75-.76Zm-24.13,0-.84-.85-.76.76-.75-.76-.83.85.75.76-.75.76.83.86.75-.77.76.77.84-.86L12,30.69ZM44.26,16l-.85-.26,0-.1c.17,0,.22,0,.26-.1a3.57,3.57,0,0,0,0-.58l-.58-.18a5.09,5.09,0,0,0-.27.5c0,.16.08.21.16.25l0,.09-.53-.15,0-.11c.15,0,.22-.12.39-.4l1.23-2.09.07,0,0,2.35c0,.47,0,.63.12.66Zm-.52-1.21,0-1.09-.53.94Zm-1.34.66-.54-.15-.2-1.51-.07,0-.22.85c-.08.34,0,.38.14.46l0,.11L40.59,15l0-.11c.18,0,.24,0,.33-.33l.48-1.92c.09-.37,0-.41-.14-.47l0-.1.85.24a.73.73,0,0,1,.54,1c-.13.53-.43.59-.59.62l.22,1.39a.12.12,0,0,0,.09.12Zm-.78-1.82c.34.09.5,0,.64-.52s.05-.67-.16-.72-.16,0-.21.13ZM40.53,15l-.85-.22,0-.11c.17,0,.22,0,.25-.11A6.05,6.05,0,0,0,40,14l-.6-.15a5.45,5.45,0,0,0-.24.53c0,.16.09.21.18.24l0,.11-.54-.14,0-.1c.15,0,.22-.14.38-.44l1.12-2.23.07,0,.07,2.42c0,.5,0,.66.16.68ZM40,13.78l0-1.12-.49,1Zm-.61-2.14c-.17,0-.26,0-.29.36l-.16,1.75c-.07.73-.42.86-.71.84a.5.5,0,0,1-.44-.55c0-.22.15-.3.23-.3s.2.1.18.32-.09.14-.1.26a.12.12,0,0,0,.11.13c.19,0,.21-.2.23-.33l.2-2.24c0-.28-.1-.29-.26-.31v-.1l1,.07Zm-1.69,2.7-.87-.16,0-.11c.17,0,.22,0,.24-.13a4.16,4.16,0,0,0,0-.6l-.6-.11a3.5,3.5,0,0,0-.21.54c0,.17.1.21.19.23l0,.11-.54-.1,0-.11c.15,0,.21-.15.34-.46l1-2.3h.08l.23,2.42c0,.49.06.64.2.66ZM37,13.16,36.9,12l-.42,1ZM35.76,14l-1.55-.21v-.11c.15,0,.24,0,.27-.29l.25-2.18c0-.29-.07-.32-.18-.35v-.11l.94.13V11c-.19,0-.27,0-.32.38l-.25,2.12c0,.22,0,.26.21.28.41.06.6-.29.79-.78H36Zm-1.65-.18-.89-.14,0-.12c.18,0,.22,0,.25-.13a4.69,4.69,0,0,0-.05-.62l-.61-.09a3.29,3.29,0,0,0-.2.55c0,.17.1.21.19.23v.11l-.56-.09,0-.1c.15,0,.21-.16.34-.49l1-2.34h.07l.29,2.44c0,.49.08.65.21.67Zm-.6-1.19-.12-1.12-.41,1Zm-2.87.61c.17,0,.23-.11.25-.27l.19-2.21c0-.26-.1-.28-.21-.31l0-.12.82.08c.76.08.94.88.88,1.57s-.42,1.49-1.11,1.46l-.85-.09Zm.68-.24c0,.18,0,.26.14.28.3,0,.56-.24.65-1.3,0-.41.06-1.37-.4-1.41-.18,0-.19.09-.19.19Zm-.87.33-.87-.07v-.12c.17,0,.23,0,.24-.15a4.37,4.37,0,0,0-.08-.59l-.61-.06c-.1.32-.16.49-.17.56s.12.19.21.21v.11l-.55-.05v-.11c.15,0,.2-.17.31-.49l.78-2.37h.08l.42,2.37c.09.48.12.64.25.64Zm-.74-1.11-.19-1.1-.34,1Zm-.73-2c-.15,0-.21.07-.22.36L28.71,12a2.26,2.26,0,0,1-.19.85.61.61,0,0,1-.54.3.65.65,0,0,1-.55-.31,1.23,1.23,0,0,1-.15-.8l.06-1.48c0-.37-.06-.38-.21-.41v-.11l.92,0v.11c-.17,0-.26,0-.28.4l-.05,1.48c0,.25,0,.86.36.87s.5-.65.52-.93l.05-1.35c0-.27,0-.42-.25-.45v-.12l.59,0Zm-1.87,1.67c-.17,0-.24,0-.25.4l0,.55a1.19,1.19,0,0,1-.74.24c-.68,0-.95-.83-.91-1.6s.44-1.55,1-1.52c.24,0,.44.23.5.24s.11-.09.14-.2h.07l0,1h-.07c-.08-.39-.28-.91-.59-.92s-.53.63-.56,1.39c0,.32-.05,1.41.46,1.43.24,0,.29-.12.3-.31l0-.46c0-.28-.08-.29-.26-.32v-.1l.93,0ZM23,10l1.56,0V11h-.06c-.06-.64-.25-.76-.62-.77-.15,0-.19,0-.2.22v1.05c.26,0,.4-.12.45-.67h.07l0,1.52H24c0-.56-.16-.69-.43-.7v1.09c0,.2,0,.25.22.26s.54-.11.72-.79h.07l-.11.94-1.59,0V13c.16,0,.24,0,.25-.31l0-2.19c0-.3-.11-.31-.23-.32Zm-1.9,3c.16,0,.22-.13.22-.29l0-2.23c0-.28-.12-.29-.23-.3v-.12h.83c.76,0,1,.78,1,1.47s-.28,1.54-1,1.59h-.85Zm.66-.31c0,.18,0,.26.15.26.31,0,.54-.3.53-1.38,0-.41-.08-1.37-.54-1.36-.18,0-.17.11-.17.21Zm-3,.43c.17,0,.22-.15.21-.32l-.09-2.19c0-.27-.14-.28-.24-.29v-.11l.82,0c.76,0,1,.72,1.07,1.41s-.23,1.54-.91,1.6l-.85,0Zm.65-.34c0,.17,0,.25.17.25.3,0,.53-.32.48-1.38,0-.4-.12-1.35-.59-1.33-.17,0-.16.12-.16.22Zm-.71.44-.87.07V13.2c.17,0,.22,0,.21-.19a5.12,5.12,0,0,0-.17-.57l-.61.05a2.78,2.78,0,0,0-.08.56c0,.18.14.18.23.18v.11l-.55.05v-.12c.14,0,.16-.2.22-.53l.44-2.45h.08l.75,2.25c.16.47.21.61.34.6Zm-.9-1-.34-1-.18,1.09ZM15,13.46c.17,0,.22-.14.22-.31l-.13-2.21c0-.27-.13-.27-.24-.28v-.11l.82-.05c.76-.06,1,.7,1.08,1.39s-.2,1.54-.89,1.62l-.85.06Zm.65-.35c0,.18,0,.26.17.25.3,0,.52-.32.47-1.39,0-.41-.14-1.36-.61-1.33-.17,0-.16.13-.15.23Zm-.71.46-1,.08v-.12c.14,0,.24-.06.23-.34L14.1,11c0-.3-.15-.3-.28-.3v-.11l.95-.08v.11c-.13,0-.26,0-.23.34l.16,2.18c0,.29.12.29.28.3Zm-1.33-2c-.08-.29-.31-.76-.63-.71-.14,0-.27.17-.23.45s.1.31.34.46l.44.25a1,1,0,0,1,.4.75c0,.37-.05.91-.55,1-.25,0-.4-.09-.48-.07s0,.08,0,.15H12.8l-.14-1.05h.08c.11.42.33.88.67.83s.28-.47.27-.53c0-.28-.17-.36-.37-.47l-.19-.11a1,1,0,0,1-.58-.85c0-.27,0-.85.48-.92.21,0,.35.09.43.07s.07-.07.08-.15h.08l.12.92Zm-1,2.32-.54.09-.74-1.32-.07,0,.11.87c.05.35.1.36.29.37V14l-.9.13,0-.11c.18-.06.23-.08.19-.44l-.25-2c0-.39-.13-.38-.29-.38v-.11l.86-.12a.68.68,0,0,1,.86.67.74.74,0,0,1-.32.82l.69,1.19c0,.07.09.07.12.07Zm-1.36-1.35c.35-.06.47-.17.4-.76-.06-.44-.19-.62-.4-.59s-.15.07-.15.21Zm-2.68-1,1.54-.32.16.87-.07,0c-.17-.61-.38-.67-.74-.6-.15,0-.2,0-.16.24l.18,1c.26-.05.38-.19.32-.73h.07l.26,1.46h-.07c-.12-.53-.29-.64-.55-.59l.19,1.05c0,.19.1.23.27.2s.51-.22.56-.91h.07l.06.92-1.56.31,0-.11c.15-.05.23-.09.18-.35L9,11.88c0-.29-.17-.27-.29-.25Zm0,.11c-.13.06-.15.14-.16.39l-.07,2.57-.07,0L7.08,12.27C7,12,6.91,12,6.79,12l0-.11.88-.2,0,.1c-.16.06-.23.07-.19.23a2.52,2.52,0,0,0,.16.34l.63,1.24,0-1.45a1.48,1.48,0,0,0,0-.3c0-.16-.11-.16-.27-.14l0-.1.56-.13ZM7.37,14.8,6.45,15l0-.11c.14,0,.24-.1.17-.36l-.48-2.05c-.07-.29-.2-.27-.32-.24l0-.11.92-.24,0,.11c-.12,0-.25.08-.18.37L7,14.46c.07.27.17.25.32.23Zm-2.79.53c.15-.07.22-.12.15-.39L4.22,13c-.23-.24-.27-.24-.3-.23l0-.11.55-.14L5.81,14h0l-.33-1.25c-.06-.24-.13-.37-.35-.34l0-.1.57-.15,0,.1c-.18.09-.17.19-.12.39l.63,2.42-.07,0L4.4,13.19h0l.43,1.64c.08.3.15.36.36.34l0,.11-.59.15ZM3.8,12.8c-.13.08-.17.15-.09.41l.41,1.3a1.85,1.85,0,0,1,.11.82.67.67,0,0,1-.42.47.63.63,0,0,1-.6-.09C3,15.6,2.94,15.48,2.8,15l-.43-1.35c-.11-.34-.18-.33-.34-.3l0-.11L2.87,13l0,.1c-.17.07-.24.1-.14.45l.43,1.36c.08.23.26.78.63.66s.26-.77.18-1l-.39-1.23c-.08-.25-.16-.38-.38-.32l0-.1.57-.19Zm19.64,3.85a2.76,2.76,0,0,1,2.5,1.86,3.91,3.91,0,0,0-2.5-1Zm-.57,0v.85a3.9,3.9,0,0,0-2.5,1A2.78,2.78,0,0,1,22.87,16.65ZM20,19.53a4.31,4.31,0,0,1,3.14-1h0a4.27,4.27,0,0,1,3.13,1V21a4.55,4.55,0,0,1-3.14.91A4.55,4.55,0,0,1,20,21Zm.52,2.79c-.06-.08.06-.16.06-.16a6.16,6.16,0,0,0,2.35.84v.46a1.93,1.93,0,0,1-.78-.09l-.24.46s.18.31,1.23.31h0c1.05,0,1.23-.31,1.23-.31l-.25-.46a1.88,1.88,0,0,1-.77.09V23a6.13,6.13,0,0,0,2.34-.84s.12.07.07.16a11.7,11.7,0,0,0-.88,1.12v.92a2.07,2.07,0,0,1-1.75.77,2.07,2.07,0,0,1-1.74-.77v-.92A11.92,11.92,0,0,0,20.53,22.32Zm12,30.93A4,4,0,0,1,31.87,56a3,3,0,0,1-2.48.85H26a4.19,4.19,0,0,0-2.86,1.32,3.84,3.84,0,0,0-2.84-1.32H16.8a2.81,2.81,0,0,1-2.21-.82,3.42,3.42,0,0,1-.73-2.32V33.63h18.7Zm.84-25.59h4.74V57.41A5.53,5.53,0,0,1,37,61a4,4,0,0,1-3.14,1.22H27.43a6.62,6.62,0,0,0-4.27,1.88,6.6,6.6,0,0,0-4.29-1.88H12.45A4,4,0,0,1,9.32,61a5.53,5.53,0,0,1-1.15-3.58V27.66h4.74c.15.59.75,2,3,2.77,0,0,1.12.17,1.73.23a3.12,3.12,0,0,1,1.78.86c.38.33,1.14,1.05,1.28,1.17a2.26,2.26,0,0,0,.25.19h-7.8V54a3.88,3.88,0,0,0,1,2.53,3.8,3.8,0,0,0,2.33,1.09h4.07A4.67,4.67,0,0,1,23.16,59,4.6,4.6,0,0,1,26,57.6h3.84a3.52,3.52,0,0,0,2.6-1.22,4,4,0,0,0,.88-2.62V32.88H25.37a2.26,2.26,0,0,0,.25-.19c.14-.12.89-.84,1.27-1.17a3.15,3.15,0,0,1,1.78-.86c.61-.06,1.73-.23,1.73-.23A4.28,4.28,0,0,0,33.4,27.66Zm.69-.6-.24-.12.39-.12-.84-.71a7,7,0,0,0,.82,0c-.08,0-1-1-1-1s1.08.13,1,0-1-1-.92-.95.89.15.87.07-.87-.9-.87-.9.92.19.87.1-1-1-.87-1,.84.23.84.23c-.14-.2-.55-.89-.55-.89l7.86,4-.55.09.86.84-.91.05.89.81-.87,0,.85.86s-.92-.08-.87,0,1,.93.87.9a3.13,3.13,0,0,0-.87,0c.07.05.94.86.82.86a6.55,6.55,0,0,0-.87-.05,7.67,7.67,0,0,1,.65.81l-2.73-1.44V27.06Zm-20.49,0a3.08,3.08,0,0,0,.49-1.5V20.67a1.86,1.86,0,0,0-1.46-1.9c-.52-.2-6.29-2.15-6.29-2.15A77.42,77.42,0,0,1,23.15,15h0a77.19,77.19,0,0,1,16.79,1.63s-5.77,1.95-6.28,2.15a1.87,1.87,0,0,0-1.47,1.9v4.89a3.21,3.21,0,0,0,.49,1.5h0l-7.14-2.8s-.2-.53.09-.75a4.36,4.36,0,0,0,1.21-1.94,1.14,1.14,0,0,0,.77-1.08A1.07,1.07,0,0,0,27,19.43s-.71-3.51-3.81-3.53h0c-3.11,0-3.81,3.53-3.81,3.53a1.07,1.07,0,0,0-.63,1.06,1.14,1.14,0,0,0,.77,1.08,4.27,4.27,0,0,0,1.21,1.94c.29.22.08.75.08.75l-7.13,2.8Zm-6,2.43L4.86,30.93a7.67,7.67,0,0,1,.65-.81,6.55,6.55,0,0,0-.87.05c-.12,0,.75-.81.82-.86a3.1,3.1,0,0,0-.87,0c-.09,0,.82-.83.87-.9s-.87,0-.87,0l.85-.86-.87,0,.89-.81-.91-.05.86-.84-.55-.09,7.86-4s-.41.69-.55.89c0,0,.74-.18.84-.23s-.82.89-.86,1,.86-.1.86-.1-.84.83-.86.9.79,0,.86-.07-.84.83-.91.95,1,0,1,0-.94,1-1,1a6.62,6.62,0,0,0,.81,0l-.84.71.39.12-.24.12H7.59Zm14.19-21C.63,8.68,0,13.8,0,13.8v5.56c0,1.86.64,1.83,1.34,2.18.37.19,5.94,2,5.94,2v.24L4.88,25a2.15,2.15,0,0,0-1.34,1.91v5.68A1.34,1.34,0,0,0,4.26,34l1.63,1.3L.57,38.81,4.24,40v4l3.34-2.21v15.6a6.11,6.11,0,0,0,1.31,4,4.57,4.57,0,0,0,3.57,1.41h6.42c2,0,4.29,2,4.29,2s2.17-2,4.27-2h6.42a4.55,4.55,0,0,0,3.57-1.41,6.11,6.11,0,0,0,1.31-4V41.85L42,44.05V40l3.67-1.21-5.32-3.53L42,34a1.35,1.35,0,0,0,.72-1.44V26.86A2.17,2.17,0,0,0,41.4,25L39,23.78v-.24s5.58-1.81,6-2c.7-.35,1.33-.32,1.33-2.18V13.8s-.62-5.12-21.76-5.33V7.29H24V5.43h1.75v.45H27.5V3.05H25.75v.42H24V1.69h.5V0H21.78V1.69h.51V3.47H20.54V3.05H18.8V5.88h1.73V5.43h1.76V7.29h-.51ZM45.1,14c-.14,0-.55.17-.4.24s.48.56.4.54-.52.12-.4.19.55.62.45.59-.57.08-.48.17.56.64.46.64-.72,0-.53.12.63.84.53.81-.77-.12-.55.07a2.22,2.22,0,0,1,.36.79C39.52,14,23.42,14.26,23.16,14.26h0c-.26,0-16.4-.26-21.81,3.87a2,2,0,0,1,.36-.79c.22-.19-.45-.1-.56-.07s.34-.69.53-.81-.42-.12-.53-.12.37-.53.46-.64-.38-.19-.48-.17.34-.51.46-.59-.33-.21-.41-.19.26-.46.41-.54-.26-.27-.41-.24.17-.42.29-.47-.34-.29-.38-.34,3.17-4,22.07-4h0c18.87,0,22,4,22,4s-.5.29-.38.34S45.25,14,45.1,14Zm-18-8.53H26.2V5.09H23.68V7.58h.46v.88h-2V7.58h.46V5.09H20.11v.35h-.92V3.52h1v.39h2.46V1.37h-.47V.44h2v.93h-.47V3.91h2.45V3.52h1Zm3.53,24.14a10.41,10.41,0,0,1-2.62.57,3.65,3.65,0,0,0-2.09,1.28,3.82,3.82,0,0,1-2.78,1.42,4,4,0,0,1-2.79-1.42,3.66,3.66,0,0,0-2.1-1.28,10.36,10.36,0,0,1-2.61-.57,4.38,4.38,0,0,1-2-1.83L20,25.27l-2.25,2.47,4-2.5-1.22,4.14,2.25-3.82.44,5.27h0l.44-5.27,2.25,3.82-1.23-4.14,4,2.5-2.25-2.47,6.26,2.48A4.38,4.38,0,0,1,30.65,29.58Z"/><rect class="cls-1" x="63.67" y="0.53" width="1.91" height="63.74"/><path class="cls-1" d="M81.31,31.67c0-14.25,10.91-24.55,25.58-24.55,7.78,0,14.46,2.79,18.9,8l-5.73,5.39a16.76,16.76,0,0,0-12.76-5.6c-9.89,0-17,7-17,16.78s7.16,16.79,17,16.79a16.62,16.62,0,0,0,12.76-5.67l5.73,5.46c-4.44,5.19-11.12,8-19,8C92.22,56.23,81.31,45.93,81.31,31.67Z"/><path class="cls-1" d="M132.84,34.74V7.8h8.87V34.4c0,9.83,4.44,14.06,12.15,14.06s12.07-4.23,12.07-14.06V7.8h8.73V34.74c0,13.92-7.84,21.49-20.87,21.49S132.84,48.66,132.84,34.74Z"/><path class="cls-1" d="M182.94,31.67c0-14.25,10.92-24.55,25.59-24.55,7.77,0,14.46,2.79,18.89,8l-5.73,5.39a16.74,16.74,0,0,0-12.75-5.6c-9.9,0-17.06,7-17.06,16.78S199,48.46,208.94,48.46a16.6,16.6,0,0,0,12.75-5.67l5.73,5.46c-4.43,5.19-11.12,8-19,8C193.86,56.23,182.94,45.93,182.94,31.67Z"/><path class="cls-1" d="M271.05,48.11v7.44H235.23V7.8h34.86v7.43h-26V27.65h23.06V35H244.1V48.11Z"/><path class="cls-1" d="M313.36,44.5H289.48l-4.71,11h-9.14L297.12,7.8h8.73l21.56,47.75h-9.28Zm-2.94-7-9-20.87-8.94,20.87Z"/><text class="cls-2" transform="translate(133.85 76.48)">El mejor lugar para el talento</text></g></g></svg>