<svg xmlns="http://www.w3.org/2000/svg" viewBox="0 0 365.22 511.28"><defs><style>.cls-1{fill:#28303a;}</style></defs><title>Recurso 1</title><g id="Capa_2" data-name="Capa 2"><g id="Capa_1-2" data-name="Capa 1"><path class="cls-1" d="M208.37,52.74v-4.3h-6.65v4.3h-4.27v6.74h4.27v4.35h6.65V59.48h4.19V52.74Zm3.2,5.73h-4.24v4.35h-4.61V58.47h-4.26V53.8h4.26V49.47h4.61V53.8h4.24ZM164.5,52.74v-4.3h-6.64v4.3h-4.24v6.74h4.24v4.35h6.64V59.48h4.25V52.74Zm3.3,5.73h-4.3v4.35h-4.64V58.47h-4.24V53.8h4.24V49.47h4.64V53.8h4.3ZM208.37,9.68V5.36h-6.65V9.68h-4.27v6.74h4.27v4.34h6.65V16.42h4.19V9.68Zm3.2,5.75h-4.24v4.32h-4.61V15.43h-4.26V10.69h4.26V6.38h4.61v4.31h4.24ZM164.5,9.68V5.36h-6.64V9.68h-4.24v6.74h4.24v4.34h6.64V16.42h4.25V9.68Zm3.3,5.75h-4.3v4.32h-4.64V15.43h-4.24V10.69h4.24V6.38h4.64v4.31h4.3Zm-7,144.53,2.83-6.71,2.82,6.71-2.82,6.66Zm8.3,0,3.58-8.44,3.57,8.44-3.57,8.42Zm36.23,0-2.84-6.71L199.64,160l2.84,6.66ZM197,160l-3.54-8.44L189.86,160l3.58,8.42Zm-10.12,0-4.13-9.73L178.58,160l4.15,9.73ZM274.1,410.74v-7.08h.56c.13,1.37.17,1.77.9,1.77a12.61,12.61,0,0,0,3.05-1v-4.87a15.08,15.08,0,0,0-2.95-.95c-.87,0-.9,1-1,1.8h-.56v-4.46h.56c.22,1.18,1,1.5,2.66,2.15l12.5,4.82v.62l-12,4.84c-2.47,1-3.24,1.37-3.2,2.39Zm5.4-6.66,5.52-2.17-5.52-2.05Zm9.42-11.52c-.09-1.24-.12-2-2.07-2h-10c-4.1,0-5-2.5-5-4.73,0-3.27,2.49-3.68,2.9-3.68a1.59,1.59,0,0,1,1.71,1.53,1.64,1.64,0,0,1-1.66,1.55c-.9,0-.85-.58-1.51-.58-.38,0-.69.36-.69,1,0,1.41,1.29,1.41,2,1.41h12.65c1.56,0,1.59-.93,1.61-2.19h.57v7.68ZM274.1,377.94v-7.09h.56c.13,1.37.17,1.75.9,1.75a14.14,14.14,0,0,0,3.05-1v-4.93a15.1,15.1,0,0,0-2.95-.93c-.87,0-.9,1-1,1.75h-.56v-4.42h.56c.22,1.15,1,1.48,2.66,2.13l12.5,4.84v.6l-12,4.9c-2.47.95-3.24,1.32-3.2,2.36Zm5.4-6.67,5.52-2.18-5.52-2Zm-4.84-25.36c.17,1.22.26,1.94,1.66,1.94h11c1.49,0,1.56-1,1.61-1.94h.57v6.74c0,1.22-.07,5.71-3.62,5.71-2.54,0-3.1-2.48-3.44-3.42h0c-.32,1.85-1.47,4.15-4,4.15-1.93,0-4.17-1.56-4.28-6.12v-7.06Zm1.57,5.41c-1,0-1.4.4-1.4,1.3,0,2.41,2,2.69,3.44,2.69,3.26,0,3.59-1.92,3.64-3.32v-.67Zm6.4,0c0,2.93.91,3.42,3.25,3.42,1.6,0,2.92-.49,2.92-2.26,0-1.11-.59-1.16-1.1-1.16Zm-8.53-9.93v-7.06h.56c.13,1.36.17,1.74.9,1.74a13.54,13.54,0,0,0,3.05-1v-4.86a18.28,18.28,0,0,0-2.95-1c-.87,0-.9,1.05-1,1.81h-.56v-4.44h.56c.22,1.19,1,1.48,2.66,2.14l12.5,4.84v.6l-12,4.87c-2.47,1-3.24,1.31-3.2,2.37Zm5.4-6.64,5.52-2.18-5.52-2.07Zm-5.4-12v-4.45l7.14-4.59v-.55h-4.46c-1.84,0-1.9.48-2.12,1.89h-.56v-7.31h.56c.22,1.47.26,1.89,2.12,1.89h10.07c1.94,0,2-.68,2.07-1.89h.57v7c0,1.56-.18,6.22-4,6.22-2.79,0-3.5-2.26-3.88-3.47l-6.47,4.4a1,1,0,0,0-.47.91Zm7.86-9.59c0,2.88.52,4,3.48,4,2.3,0,3.28-.91,3.28-2.66,0-1.2-.25-1.23-1-1.34Zm-7.86-12.87V292.5h.56c.17,1.59.22,2.08,2.12,2.08h12c-.12-1.49-.21-3.72-3.86-4.17v-.65l4.57.07v13.06l-4.57.05v-.66c3.65-.42,3.74-2.63,3.86-4.12h-12c-1.95,0-2,.48-2.12,2.16Zm0,110.42v-7.08h.56c.13,1.37.17,1.77.9,1.77a12.61,12.61,0,0,0,3.05-1v-4.87a15.08,15.08,0,0,0-2.95-.95c-.87,0-.9,1-1,1.8h-.56v-4.46h.56c.22,1.18,1,1.5,2.66,2.15l12.5,4.82v.62l-12,4.84c-2.47,1-3.24,1.37-3.2,2.39Zm5.4-6.66,5.52-2.17-5.52-2.05Zm9.42-11.52c-.09-1.24-.12-2-2.07-2h-10c-4.1,0-5-2.5-5-4.73,0-3.27,2.49-3.68,2.9-3.68a1.59,1.59,0,0,1,1.71,1.53,1.64,1.64,0,0,1-1.66,1.55c-.9,0-.85-.58-1.51-.58-.38,0-.69.36-.69,1,0,1.41,1.29,1.41,2,1.41h12.65c1.56,0,1.59-.93,1.61-2.19h.57v7.68ZM274.1,377.94v-7.09h.56c.13,1.37.17,1.75.9,1.75a14.14,14.14,0,0,0,3.05-1v-4.93a15.1,15.1,0,0,0-2.95-.93c-.87,0-.9,1-1,1.75h-.56v-4.42h.56c.22,1.15,1,1.48,2.66,2.13l12.5,4.84v.6l-12,4.9c-2.47.95-3.24,1.32-3.2,2.36Zm5.4-6.67,5.52-2.18-5.52-2Zm-4.84-25.36c.17,1.22.26,1.94,1.66,1.94h11c1.49,0,1.56-1,1.61-1.94h.57v6.74c0,1.22-.07,5.71-3.62,5.71-2.54,0-3.1-2.48-3.44-3.42h0c-.32,1.85-1.47,4.15-4,4.15-1.93,0-4.17-1.56-4.28-6.12v-7.06Zm1.57,5.41c-1,0-1.4.4-1.4,1.3,0,2.41,2,2.69,3.44,2.69,3.26,0,3.59-1.92,3.64-3.32v-.67Zm6.4,0c0,2.93.91,3.42,3.25,3.42,1.6,0,2.92-.49,2.92-2.26,0-1.11-.59-1.16-1.1-1.16Zm-8.53-9.93v-7.06h.56c.13,1.36.17,1.74.9,1.74a13.54,13.54,0,0,0,3.05-1v-4.86a18.28,18.28,0,0,0-2.95-1c-.87,0-.9,1.05-1,1.81h-.56v-4.44h.56c.22,1.19,1,1.48,2.66,2.14l12.5,4.84v.6l-12,4.87c-2.47,1-3.24,1.31-3.2,2.37Zm5.4-6.64,5.52-2.18-5.52-2.07Zm-5.4-12v-4.45l7.14-4.59v-.55h-4.46c-1.84,0-1.9.48-2.12,1.89h-.56v-7.31h.56c.22,1.47.26,1.89,2.12,1.89h10.07c1.94,0,2-.68,2.07-1.89h.57v7c0,1.56-.18,6.22-4,6.22-2.79,0-3.5-2.26-3.88-3.47l-6.47,4.4a1,1,0,0,0-.47.91Zm7.86-9.59c0,2.88.52,4,3.48,4,2.3,0,3.28-.91,3.28-2.66,0-1.2-.25-1.23-1-1.34Zm-7.86-12.87V292.5h.56c.17,1.59.22,2.08,2.12,2.08h12c-.12-1.49-.21-3.72-3.86-4.17v-.65l4.57.07v13.06l-4.57.05v-.66c3.65-.42,3.74-2.63,3.86-4.12h-12c-1.95,0-2,.48-2.12,2.16ZM75.61,288.55a1.89,1.89,0,0,0,.91,1.49l7,4.16h4.2c1.9,0,1.94-.51,2.12-2h.55v7.56h-.55c-.18-1.52-.22-2-2.12-2H84.42l-7.54,4a2.17,2.17,0,0,0-1.27,1.73H75v-7.26h.58c0,1.49.14,1.75.77,1.75a3.74,3.74,0,0,0,1.29-.58L83,294.79l-4.25-2.43a6.27,6.27,0,0,0-2.08-.84c-.88,0-.95.82-1,1.85H75v-4.82Zm14.83,26.74v7.07h-.55c-.12-1.38-.17-1.74-.89-1.74a15,15,0,0,0-3,1v4.9a14.57,14.57,0,0,0,2.92,1c.88,0,1-1,1-1.79h.55v4.42h-.55c-.22-1.15-1-1.47-2.67-2.14l-12.47-4.83v-.6l12-4.83c2.41-1,3.23-1.39,3.18-2.39Zm-5.37,6.64-5.54,2.19,5.54,2.07Zm-5.46,14c-1.59.37-4.19,1.68-4.19,4.26a2.17,2.17,0,0,0,2.17,2.34c1.21,0,1.72-.42,2.66-2.23L82,337.1a4.53,4.53,0,0,1,4.15-2.4c2,0,4.75,1.37,4.75,5.41,0,2.07-.78,3-.78,3.7,0,.46.44.56.78.69v.62H85.28v-.62c2.26-.46,4.84-1.74,4.84-4.49a2.48,2.48,0,0,0-2.57-2.72c-1.45,0-2,1-2.76,2.46l-.71,1.43c-1.89,3.73-3.83,3.73-4.87,3.73-1.42,0-4.5-.66-4.5-4.8,0-1.75.77-2.78.77-3.43s-.37-.61-.77-.7v-.66h4.9Zm10.28,28.9c-.18-1.31-.37-1.92-1.85-1.92H77.26c-1.58,1.25-1.65,1.54-1.65,1.85H75v-4.59l9.72-7.57v0H77.88c-1.36,0-2.13.22-2.27,2H75v-4.72h.58c.19,1.58.71,1.71,1.82,1.71H90.86v.6l-12.34,9.7v0h9.1c1.62,0,2-.44,2.27-2.08h.55v5ZM75,382.83V370.27h4.58v.55c-3.23.51-3.81,2-3.81,5,0,1.19.11,1.58,1.09,1.58h5.28c0-2.09-.56-3.18-3.37-3.52v-.57h7.68v.57c-2.83.22-3.52,1.38-3.52,3.52h5.48c1,0,1.28-.39,1.28-1.82,0-2.14-.6-4.35-4-5.73v-.62l4.74.88v12.72h-.55c-.17-1.23-.22-1.9-1.61-1.9h-11c-1.5,0-1.57.92-1.64,1.9Zm15.41,4.24v7.63h-.55c-.12-1.15-.22-2-1.61-2h-11c-1.5,0-1.57,1-1.64,2H75v-7.63h.58c0,1,.07,2.05,1.64,2.05h11c1.43,0,1.49-.82,1.61-2.05Zm-.55,24.55c-.22-1.1-.22-1.1-.37-1.29s-.46-.56-1.75-.56H77.67c-1.87,0-1.92.69-2.06,1.85H75v-7.06c0-1.72.39-5.7,4.2-5.7a3.89,3.89,0,0,1,3.44,2c.81,1.43.82,2.53.88,5.4h4.22c1.86,0,1.9-.45,2.12-1.88h.55v7.25Zm-7.13-5.37c0-2.68-.62-3.6-3.45-3.6-2.62,0-3.45.76-3.45,2.52,0,.77.26,1,.78,1.08Zm124.67-98.14c-5.25,0-6.71-3.73-6.71-3.73a26.3,26.3,0,0,0,6.61,1.19,24.9,24.9,0,0,0,6.45-1.19S212.73,308.11,207.43,308.11Zm0,21c-5.25,0-6.71-3.77-6.71-3.77a25.54,25.54,0,0,0,6.61,1.23,24.19,24.19,0,0,0,6.45-1.23S212.73,329.08,207.43,329.08Zm-6.05,11.55c-5.29,0-6.73-3.76-6.73-3.76a25.41,25.41,0,0,0,6.59,1.23,23.88,23.88,0,0,0,6.45-1.23S206.63,340.63,201.38,340.63Zm-35,0c-5.29,0-6.74-3.76-6.74-3.76a25.45,25.45,0,0,0,6.62,1.23,23.67,23.67,0,0,0,6.44-1.23S171.66,340.63,166.4,340.63Zm-14-15.32a25.16,25.16,0,0,0,6.56,1.23,24.14,24.14,0,0,0,6.49-1.23s-1.07,3.77-6.35,3.77S152.44,325.31,152.44,325.31Zm-1.22-20.93a26.16,26.16,0,0,0,6.59,1.19,24.29,24.29,0,0,0,6.46-1.19s-1,3.73-6.32,3.73S151.22,304.38,151.22,304.38ZM170,313.74a25.54,25.54,0,0,0,6.49-1.17s-1.07,3.72-6.33,3.72-6.77-3.72-6.77-3.72A26.7,26.7,0,0,0,170,313.74Zm12.68-8.17a24.92,24.92,0,0,0,6.47-1.19s-1.06,3.73-6.33,3.73-6.73-3.73-6.73-3.73A26.27,26.27,0,0,0,182.64,305.57Zm13.45,8.17a25,25,0,0,0,6.46-1.17s-1.05,3.72-6.33,3.72-6.71-3.72-6.71-3.72A25.78,25.78,0,0,0,196.09,313.74Zm22.13-9.29s3.05-11.34-3.74-18.3-14.43-5.41-14.43-5.41a20.41,20.41,0,0,0-17.45-10c-12.16,0-16.2,9.75-16.2,9.75s-12.66-.5-17.72,9.28-1.76,14.42-1.76,14.42-6.53,5.43-5.56,15.73c0,0,2.24,8.26,8.85,12.84,0,0,.74,9.81,11.67,12.84,7.3,2.13,16.18-1.47,16.18-1.47v79.55s-4.83,9.79-11.9,9.79c0,0,1,4.61,11.9,4.61,0,0,1.51,8.79,5,8.79,0,0,5.07-1.8,5.07-8.79,0,0,9.58-.46,11.63-4.35,0,0-11.12-3.11-11.12-10.05V344.12s5.56,3.08,6.82,2.77,16.48.56,19.23-13.88c0,0,9.88-6.44,9.88-16.47C224.59,309.83,218.22,304.45,218.22,304.45ZM114.43,369.39l.19,7.92,3.77,7.54,4-9.65-1.32-5.61,3.21-1.54,3.43,3.28-7.36,29.17,1.09,8.09-.37,4.46,2.1,2.69.93,3.47-2.47,2.72v11.18h12.17l-6.45-5.2v-4.66l6.45-3.26,1.87-15.62,19.55-4.1,6.28-12.7,4.92-3.9,4.74-1.91,1.16-6.56,5.49-5.24V363s-10.43,11.4-14.22,13.89a5.31,5.31,0,0,1-6.68-.16,24.92,24.92,0,0,1,0-3.69c.21-.56,4.37-1.34,4.37-1.34l1-2.86-.58-2.18a3.51,3.51,0,0,0-2.46-.57c-.55,2.9-3,1.59-3-.79s3.43-1.92,4-2.1-.38-4-.38-4l-2.48-2-4.54.58c-4.36-2.71-14.43,3.28-14.43,3.28s.58,3.1-.56,4.83-1.7,8.72-1.89,9.67,2.45,7.15,2.45,7.15c.21.94.21,6,.21,6a20.7,20.7,0,0,0-11.19,8.52,1.78,1.78,0,0,1-1.15.56l6.62-27L125,361.49Zm36.25-6.95.15-2.33,3.79.57Zm-4.39,11.78,2.63-3.64v7.31Zm-4.35,7.92,2.67-3.67v7.35Zm0-15.82,2.67-3.67V370Zm-3.24,7.9,2.66-3.64v7.31Zm.38,32.84,8.91,5.36.77,8.34-6.82,2.91v4.64l7,5.21H136.05Zm38.88-29-6.82,7.35L166,387.57l-4.77,9.26,4.93-1.37,5.53-3.65,6.07-6.77Zm63.36-16.58-7.75,9.27,6.63,27a1.78,1.78,0,0,1-1.14-.56,20.64,20.64,0,0,0-11.21-8.52s0-5,.2-6c0,0,2.67-6.2,2.48-7.15s-.77-7.92-1.9-9.67-.58-4.83-.58-4.83-10.05-6-14.41-3.28l-4.53-.58-2.48,2s-.95,3.84-.39,4,4-.4,4,2.1-2.47,3.69-3,.79a3.59,3.59,0,0,0-2.46.57l-.56,2.18.94,2.86s4.18.78,4.37,1.34a23.61,23.61,0,0,1,0,3.69,5.27,5.27,0,0,1-6.66.16C199,374.42,188.6,363,188.6,363V370l5.5,5.24,1.12,6.56,4.76,1.91,4.94,3.9,6.23,12.7,19.57,4.1L232.61,420l6.45,3.26v4.66l-6.45,5.2h12.14V421.93l-2.47-2.72,1-3.47,2.08-2.69-.41-4.46,1.14-8.09-7.38-29.17,3.4-3.28,3.25,1.54L244,375.2l4,9.65,3.8-7.54.16-7.92Zm-29.57-.81,3.78-.57.19,2.33Zm5.65,17.21v-7.31l2.68,3.64Zm4.39,7.93v-7.35l2.66,3.67Zm0-15.86v-7.31l2.66,3.67Zm3.23,7.93v-7.31l2.65,3.64Zm2.29,29.17-8.92,5.36-.78,8.34,6.84,2.91v4.64l-7,5.21h13Zm-38.89-29,6.8,7.35,5.14,2.15,4.74,9.26-4.91-1.37-5.53-3.65L188.6,385Zm95.28,78.54-6.61-6.74-5.92,6-5.87-6-6.63,6.74,5.92,6-5.92,6,6.63,6.75,5.87-6,5.92,6,6.61-6.75-5.9-6Zm-179.34,0-6.61-6.74-5.9,6-5.91-6-6.63,6.74,5.92,6-5.92,6,6.63,6.75,5.91-6,5.9,6,6.61-6.75-5.91-6ZM290.79,236.2l-6.62-6.75-5.9,6-5.91-6-6.62,6.75,5.9,6-5.9,6,6.62,6.77,5.91-6.06,5.9,6.06,6.62-6.77-5.9-6Zm-190.45,0-6.63-6.75-5.92,6-5.92-6-6.58,6.75,5.89,6-5.89,6L81.87,255l5.92-6.06L93.71,255l6.63-6.77-5.92-6Zm248.9-109.67-6.66-2,.22-.79c1.36.22,1.72.31,2-.79a29,29,0,0,0,.3-4.63l-4.59-1.4a36.72,36.72,0,0,0-2.15,3.95c-.33,1.24.62,1.65,1.28,1.93l-.21.78-4.17-1.26.24-.84c1.17.13,1.78-.91,3.12-3.16l9.64-16.51.55.2-.3,18.52c-.07,3.76-.07,5,1,5.24Zm-4.06-9.6.17-8.56-4.19,7.36Zm-10.6,5.23L330.34,121l-1.62-11.9-.57-.17-1.68,6.72c-.66,2.69-.24,3,1.08,3.65l-.25.83-7-2,.23-.84c1.47.12,1.92.16,2.64-2.63l3.73-15.14c.74-2.93.1-3.2-1-3.69l.21-.83,6.68,1.91c1.42.46,5.73,2,4.3,7.72-1,4.15-3.43,4.63-4.7,4.89l1.73,11a1,1,0,0,0,.72.91Zm-6.13-14.39c2.69.75,3.93.3,5.05-4.11.88-3.48.39-5.24-1.25-5.66-1.15-.32-1.26,0-1.66,1.07Zm-8.63,10.57-6.72-1.71.2-.9c1.31.19,1.71.3,1.94-.86a28.84,28.84,0,0,0,.08-4.79l-4.69-1.17a31.88,31.88,0,0,0-1.91,4.16c-.32,1.27.69,1.65,1.39,1.9l-.16.84-4.26-1.06.19-.84c1.19,0,1.72-1.1,2.95-3.47l8.84-17.54.56.16.58,19.11c.13,3.92.19,5.16,1.23,5.29Zm-4.5-9.62-.24-8.85-3.85,7.81Zm-4.79-16.86c-1.35,0-2.06,0-2.31,2.8l-1.29,13.86c-.53,5.77-3.24,6.77-5.59,6.62-3.39-.31-3.5-3.81-3.47-4.36.19-1.73,1.22-2.36,1.86-2.34s1.56.79,1.41,2.53c-.13,1.24-.72,1.09-.82,2a1,1,0,0,0,.9,1.08c1.49.1,1.65-1.65,1.76-2.67l1.64-17.66c.16-2.17-.82-2.3-2.1-2.45l.05-.8,8,.61Zm-13.39,21.28-6.8-1.22.12-.87c1.32.08,1.71.1,1.89-1a29.71,29.71,0,0,0-.25-4.79l-4.74-.84a36.74,36.74,0,0,0-1.63,4.27c-.2,1.33.79,1.64,1.49,1.81l-.13.86-4.28-.75.13-.9c1.19-.05,1.68-1.16,2.73-3.65l7.64-18.15.62.14,1.82,19.06c.35,3.86.51,5,1.56,5.21ZM292,103.81,291.21,95l-3.31,8Zm-9.83,6.71-12.27-1.64.1-.87c1.23-.1,1.88-.16,2.15-2.28l2-17.19c.31-2.3-.56-2.52-1.48-2.76l0-.88,7.45,1-.13.85c-1.48-.09-2.13-.17-2.53,3l-1.95,16.75c-.21,1.72.2,2,1.66,2.23,3.2.48,4.74-2.33,6.2-6.18l.59.1Zm-13-1.42-7-1.09.13-.91c1.38.07,1.76.09,1.94-1.08a29.73,29.73,0,0,0-.35-4.84l-4.86-.76a29.12,29.12,0,0,0-1.58,4.37c-.18,1.35.83,1.63,1.56,1.81l-.15.9-4.36-.7.12-.85c1.19-.13,1.68-1.26,2.68-3.81l7.49-18.5.6.07L267.64,103c.44,3.87.62,5.15,1.67,5.26Zm-4.73-9.33-1-8.87-3.21,8.19Zm-22.71,4.79c1.34.15,1.86-.84,2-2.16L245.23,85c.21-2.12-.75-2.27-1.59-2.52l.1-.87,6.51.63c5.95.59,7.38,6.94,6.93,12.37-.59,6.46-3.35,11.72-8.76,11.47l-6.74-.64Zm5.42-1.88c-.12,1.41,0,2,1.06,2.15,2.39.24,4.44-1.84,5.18-10.22.31-3.23.43-10.8-3.23-11.13-1.38-.15-1.45.74-1.47,1.54Zm-6.88,2.58-6.88-.57,0-.9c1.34-.06,1.75-.06,1.83-1.22a29.2,29.2,0,0,0-.61-4.68l-4.83-.44a43.65,43.65,0,0,0-1.28,4.41c-.1,1.31.9,1.54,1.63,1.67l0,.88-4.34-.38.07-.87c1.15-.18,1.56-1.35,2.4-3.9l6.18-18.67.58.06,3.39,18.72c.66,3.79.94,5,2,5Zm-5.85-8.79-1.51-8.63-2.65,8.3ZM228.72,81c-1.19.2-1.69.57-1.74,2.86L226.52,95c-.1,2.07-.5,5.18-1.45,6.69a5,5,0,0,1-4.3,2.37,5.25,5.25,0,0,1-4.28-2.42c-.85-1.35-1.38-2.6-1.23-6.36l.46-11.65c.09-2.93-.46-3-1.64-3.29l0-.84,7.27.29-.07.85c-1.36.06-2.09.06-2.21,3.14l-.42,11.64c-.09,2-.26,6.84,2.82,6.93,3.75.19,4-5.16,4.09-7.41L226,84.33c.13-2.09-.08-3.31-2-3.53l.06-.91,4.7.25Zm-14.83,13.2c-1.32.15-1.85.25-1.93,3.12l-.21,4.38c-1.09,1.12-4.06,1.94-5.85,1.86-5.37-.25-7.48-6.54-7.23-12.57C199,84.2,202.18,78.76,206.8,79c1.91.06,3.5,1.87,4,1.92s.84-.7,1.07-1.57l.59,0-.37,8.12-.53,0c-.62-3-2.2-7.19-4.67-7.28-3.08-.19-4.18,5-4.44,11-.14,2.49-.36,11.11,3.66,11.32,1.93.07,2.3-.95,2.37-2.46l.11-3.62c.13-2.23-.55-2.31-2-2.54l.06-.84,7.33.34Zm-32.81-15,12.36.17-.1,7.16h-.51c-.47-5-2-6-4.83-6-1.23,0-1.57.15-1.61,1.72l-.08,8.24c2,0,3.13-.9,3.53-5.27h.53l-.1,12h-.59c-.23-4.46-1.26-5.5-3.41-5.57l-.07,8.61c0,1.57.36,2,1.77,2.06,2.07,0,4.27-.9,5.67-6.25h.6l-.93,7.42-12.49-.18v-.87c1.2-.24,1.89-.32,1.91-2.52l.19-17.26c.05-2.34-.86-2.42-1.84-2.54Zm-15,23.55c1.31,0,1.74-1.06,1.74-2.36l-.19-17.6c0-2.17-1-2.23-1.8-2.35v-.9l6.54-.11c5.94-.06,8,6.14,8.07,11.6.05,6.56-2.2,12.14-7.6,12.52l-6.76.08Zm5.2-2.52c.07,1.46.21,2.08,1.25,2.08,2.39,0,4.23-2.34,4.15-10.88,0-3.24-.6-10.81-4.29-10.74-1.37,0-1.34.87-1.33,1.67Zm-23.95,3.4c1.35-.1,1.75-1.13,1.68-2.47l-.76-17.31c-.09-2.13-1-2.17-1.88-2.25v-.9l6.5-.3c6-.29,8.21,5.68,8.44,11.13.29,6.44-1.79,12.1-7.17,12.6l-6.76.34Zm5.15-2.68c.07,1.4.29,2,1.3,2,2.4-.14,4.17-2.49,3.82-10.89-.17-3.19-1-10.66-4.64-10.46-1.4.06-1.31.93-1.26,1.7Zm-5.63,3.52-6.89.55-.05-.91c1.32-.27,1.7-.33,1.62-1.46a31.6,31.6,0,0,0-1.33-4.54l-4.8.41a31,31,0,0,0-.64,4.46c.1,1.38,1.16,1.4,1.84,1.42l.09.85-4.33.35-.06-.9c1.15-.34,1.33-1.56,1.79-4.18l3.45-19.33.6,0,6,17.8c1.25,3.67,1.65,4.77,2.68,4.68Zm-7.06-7.65L137,88.58l-1.41,8.55Zm-21.07,9.34c1.33,0,1.72-1.12,1.67-2.46l-1-17.38c-.11-2.19-1.08-2.19-1.92-2.22v-.89l6.52-.42c5.94-.43,8.21,5.58,8.53,11,.34,6.52-1.65,12.14-7,12.81l-6.72.44Zm5.08-2.74c.11,1.41.31,2,1.39,2,2.35-.16,4.1-2.57,3.65-11-.18-3.2-1-10.71-4.76-10.46-1.36.09-1.3,1-1.22,1.78Zm-5.59,3.63-7.46.61-.07-.89c1.14-.28,2-.49,1.81-2.68l-1.23-17.19c-.17-2.31-1.18-2.31-2.17-2.36l-.08-.88,7.49-.62,0,.9c-1,.16-2,.26-1.84,2.65L116,103.81c.15,2.29,1,2.33,2.21,2.38Zm-10.48-16c-.67-2.34-2.49-6-5-5.66-1.13.17-2.15,1.34-1.85,3.55.25,1.8.78,2.48,2.72,3.64l3.44,2c.79.46,2.67,2.2,3.18,5.87.37,3-.43,7.23-4.34,7.78-2,.29-3.12-.72-3.76-.62-.46.07-.46.69-.46,1.25l-.63.08-1.12-8.32.61-.09c.87,3.34,2.62,7,5.28,6.59S108,103.48,108,103c-.26-2.24-1.39-2.87-2.9-3.75l-1.56-.88a8.18,8.18,0,0,1-4.58-6.69c-.28-2.09-.22-6.72,3.8-7.29,1.67-.26,2.81.71,3.43.62s.52-.56.58-1.23l.63-.1,1,7.28Zm-7.63,18.32-4.33.67L90,99.7l-.57.09.87,6.9c.36,2.8.81,2.81,2.27,2.94l.1.86-7.14,1-.13-.87c1.4-.51,1.83-.64,1.47-3.47L84.92,91.67c-.38-3-1-3-2.29-3l-.1-.87,6.83-1c1.5-.23,6-.61,6.75,5.31.57,4.31-1.48,5.73-2.55,6.5L99.05,108c.39.58.72.58.93.54ZM89.31,98.68c2.75-.46,3.73-1.34,3.18-5.94-.46-3.51-1.5-4.9-3.18-4.66-1.18.18-1.17.54-1.14,1.66Zm-21.15-7.8L80.33,88.4l1.25,6.88-.54.1c-1.35-4.77-3-5.29-5.88-4.73-1.17.23-1.5.44-1.22,1.93l1.42,7.87c2.07-.38,3-1.49,2.52-5.75l.53-.09,2.11,11.49-.56.09c-1-4.19-2.29-5-4.36-4.6l1.48,8.25c.31,1.49.79,1.84,2.15,1.55,2-.41,4-1.73,4.42-7.12l.58-.13.44,7.25-12.29,2.44-.16-.82c1.16-.43,1.77-.7,1.43-2.8l-3-16.46c-.4-2.26-1.33-2.13-2.29-2Zm-.26.86c-1.09.48-1.22,1.16-1.3,3.12L66,115.15l-.54.16L55.83,96.85C54.86,95,54.53,95,53.59,95l-.16-.82,7-1.57.2.8c-1.27.45-1.78.54-1.51,1.82a17.68,17.68,0,0,0,1.26,2.64l5,9.76.3-11.41a10.8,10.8,0,0,0,0-2.36c-.3-1.25-.91-1.25-2.14-1.11l-.17-.8,4.46-1Zm-9.75,25-7.27,1.91-.2-.84c1.09-.46,1.86-.8,1.36-2.89L48.2,98.78c-.55-2.25-1.53-2.08-2.51-1.9l-.17-.83,7.25-1.9L53,95c-1,.34-2,.65-1.42,2.92l3.87,16.18c.51,2.13,1.35,2,2.53,1.85Zm-22,4.23c1.21-.56,1.71-.94,1.18-3.08l-4.05-15.39c-1.75-1.93-2-1.93-2.36-1.86l-.22-.85,4.38-1.14,10.78,11.9h.06l-2.59-9.88c-.47-1.88-1.05-2.91-2.76-2.67l-.23-.81,4.47-1.17.23.8c-1.4.67-1.32,1.48-.94,3l5,19.14-.53.16L34.73,104.05h-.09l3.43,13c.59,2.32,1.17,2.85,2.77,2.69l.22.82-4.68,1.24ZM30,101c-1.05.65-1.38,1.16-.72,3.25l3.25,10.2c.62,1.91,1.21,4.82.84,6.53a5.29,5.29,0,0,1-3.29,3.71,5.35,5.35,0,0,1-4.76-.71c-1.3-.87-2.14-1.84-3.23-5.29L18.69,108c-.87-2.69-1.41-2.55-2.63-2.38l-.24-.84,6.85-2.22.26.81c-1.28.54-1.9.76-1,3.56l3.38,10.68c.62,1.84,2,6.21,5,5.28,3.58-1.18,2.07-6.11,1.43-8.13l-3.11-9.72c-.63-2-1.24-3-3-2.56l-.26-.77,4.5-1.48Zm155,30.39C201.11,132.87,204.7,146,204.7,146c-11-8.65-19.75-7.93-19.75-7.93Zm-4.49,0v6.69s-8.8-.72-19.72,7.93C160.74,146,164.34,132.87,180.46,131.41Zm-22.53,22.74s6.89-7.6,24.71-7.6h.09c17.84,0,24.71,7.6,24.71,7.6V165.3c-8.15,8.32-24.19,7.26-24.76,7.22s-16.55,1.1-24.75-7.22Zm4,22c-.45-.67.53-1.27.53-1.27,5,4.49,18.48,6.66,18.48,6.66v3.59a15.24,15.24,0,0,1-6.09-.71L173,188s1.43,2.5,9.73,2.5h0c8.34,0,9.74-2.5,9.74-2.5l-2-3.61a15.24,15.24,0,0,1-6.09.71v-3.59s13.45-2.17,18.49-6.66c0,0,.93.52.54,1.27s-6.94,7.91-6.94,8.8v7.29c0,.91-5.23,6-13.78,6.06s-13.77-5.15-13.77-6.06v-7.29C168.94,184.05,162.66,177.15,162,176.14Zm95,244c0,6.75.1,15.68-5.43,21.91-3.95,4.48-9.49,6.64-19.59,6.64H205.41c-13.43,0-22.56,10.46-22.56,10.46s-8.23-10.46-22.41-10.46H132.57c-7.24,0-13.46-1.88-17.45-6.41-5.51-6.19-5.74-14.38-5.74-18.36V265.37H256.94Zm6.58-201.92H301V453c0,5.78-.89,19.15-9.07,28.25-5.74,6.42-14.05,9.65-24.78,9.65H216.44c-12,0-27.71,7.71-33.71,14.84-6-7.13-21.62-14.84-33.81-14.84H98.26c-10.71,0-19-3.23-24.74-9.65-8.19-9.1-9.08-22.47-9.08-28.25V218.26h37.45c1.2,4.7,5.87,15.5,23.61,21.84,0,0,8.82,1.38,13.66,1.82,6.1.52,10.41,3.78,14,6.84,3,2.54,8.95,8.27,10.06,9.17.49.44,1.14,1,2,1.57H103.66V426c0,4.21,1.47,13.27,7.88,19.94,4.43,4.6,12.49,8.6,18.31,8.6H162c10,0,20.76,11.33,20.76,11.33s10.51-11.33,22.15-11.33h30.34c8.94,0,16.26-4.78,20.51-9.58,5.82-6.61,6.89-15.49,6.89-20.68V259.5H200.21c.83-.61,1.48-1.13,2-1.57,1.07-.9,7-6.63,10-9.17,3.58-3.06,7.91-6.32,14-6.84,4.81-.44,13.63-1.82,13.63-1.82C257.63,233.76,262.31,223,263.52,218.26Zm5.48-4.71-1.89-1,3.06-.95L263.54,206s7,0,6.46-.21-8-8.13-8-8.13,8.54,1,8,0-7.79-7.92-7.24-7.51,7,1.16,6.85.58-6.85-7.16-6.85-7.16,7.24,1.55,6.85.78-7.61-8.11-6.85-7.74,6.64,1.78,6.64,1.78c-1.14-1.61-4.35-7-4.35-7l62,31.32-4.33.72,6.79,6.56-7.2.41,7,6.37-6.86.2,6.67,6.79s-7.21-.6-6.84,0,7.59,7.3,6.84,7.11-7.4,0-6.84.41,7.41,6.76,6.47,6.76-7.6-.78-6.84-.43,5.11,6.39,5.11,6.39l-21.57-11.32V213.55Zm-161.65,0a24.82,24.82,0,0,0,3.84-11.89V163.1c0-11.36-8.28-13.7-11.55-15-4.1-1.55-49.61-17-49.61-17,59.75-14.22,130.42-12.91,132.61-12.88h.07c2.23,0,72.78-1.32,132.48,12.88,0,0-45.51,15.42-49.58,17-3.26,1.28-11.58,3.62-11.58,15v38.56a24.68,24.68,0,0,0,3.89,11.89h-.13l-56.35-22.13s-1.59-4.16.74-5.92a34,34,0,0,0,9.52-15.32,8.93,8.93,0,0,0,6.11-8.47c0-6.68-5-8.35-5-8.35s-5.57-27.73-30-27.9h-.15c-24.49.17-30,27.9-30,27.9s-5,1.67-5,8.35a8.93,8.93,0,0,0,6.09,8.47,33.93,33.93,0,0,0,9.51,15.32c2.34,1.76.69,5.92.69,5.92l-56.29,22.13ZM59.89,232.74,38.34,244s4.38-6,5.12-6.39-5.89.43-6.85.43,5.91-6.39,6.48-6.76-6.06-.57-6.84-.41,6.47-6.55,6.84-7.11-6.84,0-6.84,0L42.93,217l-6.88-.2,7-6.37L35.9,210l6.82-6.56-4.38-.72,62-31.32s-3.2,5.38-4.34,7c0,0,5.87-1.39,6.6-1.78s-6.44,7-6.77,7.74,6.77-.78,6.77-.78-6.6,6.58-6.77,7.16,6.25-.24,6.77-.58-6.6,6.54-7.18,7.51,8,0,8,0-7.4,7.93-8,8.13,6.45.21,6.45.21l-6.63,5.58,3,.95-1.89,1H59.89Zm112-165.93C5,68.51,0,108.88,0,108.88v43.91c0,14.66,5,14.4,10.59,17.22,2.89,1.48,46.89,15.72,46.89,15.72v1.94l-18.94,9.25C27.18,203.1,27.92,212,27.92,212v44.82c0,6.73.91,7.58,5.7,11.32L46.5,278.43l-42,27.79,28.93,9.56v31.83l26.38-17.47-.07,123.13c0,6.54,1.16,20.88,10.35,31.13,6.61,7.42,16.12,11.17,28.15,11.17h50.66c15.8,0,33.81,15.71,33.81,15.71s17.14-15.71,33.71-15.71h50.67c12.06,0,21.55-3.75,28.16-11.17,9.19-10.25,10.34-24.59,10.34-31.13l-.05-123,26.21,17.38V315.78l29-9.56-42-27.79s8.36-6.71,12.9-10.32c4.79-3.74,5.69-4.59,5.69-11.32V212s.74-8.87-10.62-15.05l-19-9.25v-1.94s44-14.24,46.93-15.72c5.54-2.82,10.54-2.56,10.54-17.22V108.88S360.3,68.49,193.47,66.81V57.55h-4V42.83H203.3v3.54H217V24.08H203.17v3.33H189.4v-14h4V0H171.86V13.36h4V27.41H162.12V24.08H148.35V46.37H162V42.83h13.85V57.55h-4ZM355.91,110.2c-1.15-.18-4.34,1.36-3.19,1.93s3.78,4.46,3.19,4.27-4.14,1-3.19,1.53,4.35,4.83,3.58,4.65-4.53.57-3.78,1.33,4.37,5,3.59,5-5.7,0-4.15,1,4.93,6.57,4.15,6.38-6.08-1-4.34.58,2.83,6.18,2.83,6.18c-42.73-32.58-169.82-30.54-171.82-30.53h-.05c-2,0-129.35-2-172.1,30.53,0,0,1.14-4.64,2.87-6.18s-3.59-.8-4.39-.58,2.66-5.43,4.18-6.38-3.38-1-4.18-1,2.86-4.19,3.61-5-3-1.53-3.82-1.33,2.7-4.08,3.64-4.65-2.63-1.73-3.22-1.53,2.07-3.67,3.22-4.27S10.47,110,9.32,110.2s1.31-3.28,2.28-3.67-2.7-2.31-3-2.71c0,0,25-31.47,174.15-31.47h.05c148.86,0,173.92,31.47,173.92,31.47-.4.4-4,2.32-3,2.71S357.07,110.39,355.91,110.2ZM214,42.91h-7.3V40.18H186.86V59.79h3.63v7c-2.56,0-5.15,0-7.78,0h-.07c-2.61,0-5.17,0-7.72,0v-7h3.64V40.18H158.72v2.73H151.4V27.77h7.87v3.06h19.36v-20h-3.71V3.48h15.57v7.35h-3.72v20h19.35V27.77H214Zm27.86,190.5c-5.65,3-20.67,4.52-20.67,4.52s-8.41.9-16.51,10.08c-5.75,6.55-13.7,11.31-22,11.2-8-.07-16.45-4.89-22-11.2-8.12-9.18-16.54-10.08-16.54-10.08s-15-1.53-20.64-4.52C117.11,230,111.86,226,108.09,219l49.38-19.63-17.73,19.49,31.37-19.68-9.68,32.63,17.81-30.08,3.4,41.58h.14l3.43-41.58L204,231.81l-9.72-32.63,31.42,19.68-17.77-19.49L257.31,219C253.52,226,248.34,230,241.88,233.41Z"/></g></g></svg>